<?xml version="1.0" encoding="UTF-8" standalone="no"?>
<!-- Created with Inkscape (http://www.inkscape.org/) -->

<svg
   xmlns:dc="http://purl.org/dc/elements/1.1/"
   xmlns:cc="http://creativecommons.org/ns#"
   xmlns:rdf="http://www.w3.org/1999/02/22-rdf-syntax-ns#"
   xmlns:svg="http://www.w3.org/2000/svg"
   xmlns="http://www.w3.org/2000/svg"
   xmlns:sodipodi="http://sodipodi.sourceforge.net/DTD/sodipodi-0.dtd"
   xmlns:inkscape="http://www.inkscape.org/namespaces/inkscape"
   width="132.80777mm"
   height="75.274567mm"
   viewBox="0 0 132.80777 75.274567"
   version="1.1"
   id="svg5004"
   inkscape:version="0.92.1 r15371"
   sodipodi:docname="end.svg">
  <defs
     id="defs4998" />
  <sodipodi:namedview
     id="base"
     pagecolor="#ffffff"
     bordercolor="#666666"
     borderopacity="1.0"
     inkscape:pageopacity="0.0"
     inkscape:pageshadow="2"
     inkscape:zoom="0.98994949"
     inkscape:cx="83.997742"
     inkscape:cy="19.184461"
     inkscape:document-units="mm"
     inkscape:current-layer="layer1"
     showgrid="false"
     inkscape:snap-global="false"
     fit-margin-top="0"
     fit-margin-left="0"
     fit-margin-right="0"
     fit-margin-bottom="0"
     inkscape:window-width="1536"
     inkscape:window-height="793"
     inkscape:window-x="-8"
     inkscape:window-y="-8"
     inkscape:window-maximized="1" />
  <metadata
     id="metadata5001">
    <rdf:RDF>
      <cc:Work
         rdf:about="">
        <dc:format>image/svg+xml</dc:format>
        <dc:type
           rdf:resource="http://purl.org/dc/dcmitype/StillImage" />
        <dc:title></dc:title>
      </cc:Work>
    </rdf:RDF>
  </metadata>
  <g
     inkscape:label="Layer 1"
     inkscape:groupmode="layer"
     id="layer1"
     transform="translate(-45.706022,-6.7124352)">
    <path
       style="fill:#b10d1e;fill-opacity:1;stroke:#0b0b0b;stroke-width:0.7486105;stroke-linecap:butt;stroke-linejoin:miter;stroke-miterlimit:4;stroke-dasharray:none;stroke-opacity:1"
       d="m 46.08106,79.108331 0.880207,-56.525907 c 0,0 29.786967,-0.424921 31.980827,10.0243 1.666675,7.938259 -19.364538,15.871807 -19.364538,15.871807 0,0 26.064428,10.843967 24.352368,21.162409 -1.572552,9.477611 -27.579793,11.973471 -27.579793,11.973471 0,0 14.23737,-7.42609 14.376703,-13.922641 C 70.893113,59.938803 54.29632,50.427701 54.29632,50.427701 c 0,0 15.008668,-10.294774 12.90969,-16.985621 C 66.622958,31.583504 63.321636,30.504479 61.484669,31.353686 45.714923,38.643835 46.08106,79.108331 46.08106,79.108331 Z"
       id="path5560-1"
       inkscape:connector-curvature="0"
       sodipodi:nodetypes="ccacacacaac" />
    <path
       style="fill:#b10d1e;fill-opacity:1;stroke:#0b0b0b;stroke-width:0.7486105;stroke-linecap:butt;stroke-linejoin:miter;stroke-miterlimit:4;stroke-dasharray:none;stroke-opacity:1"
       d="m 107.96222,33.62924 c 0.19561,-3.923011 -8.078193,-6.238467 -11.605403,-4.184507 -12.62021,7.348971 -16.167695,32.974147 -4.744931,41.914969 6.735091,5.271679 25.032154,-7.310556 25.032154,-7.310556 0,0 -12.77497,2.082798 -16.797623,-1.654449 -6.51546,-6.053158 -8.465854,-18.56165 -3.40232,-25.757679 2.21146,-3.14281 11.329913,0.767168 11.518123,-3.007778 z"
       id="path5562-8"
       inkscape:connector-curvature="0"
       sodipodi:nodetypes="aaacaaa" />
    <path
       style="fill:#b10d1e;fill-opacity:1;stroke:#0b0b0b;stroke-width:0.7486105;stroke-linecap:butt;stroke-linejoin:miter;stroke-miterlimit:4;stroke-dasharray:none;stroke-opacity:1"
       d="m 118.55137,25.923855 7.62845,49.286136 35.20826,-9.188936 -2.64063,-5.569055 -24.64577,6.125961 -4.40103,-16.707167 16.72392,-3.898337 -2.05382,-5.290604 -13.4965,2.784527 -4.10762,-15.454129 20.53814,-5.151376 -4.10762,-5.569055 z"
       id="path5564-4"
       inkscape:connector-curvature="0"
       sodipodi:nodetypes="ccccccccccccc" />
    <path
       style="fill:#b10d1e;fill-opacity:1;stroke:#0b0b0b;stroke-width:0.7486105;stroke-linecap:butt;stroke-linejoin:miter;stroke-miterlimit:4;stroke-dasharray:none;stroke-opacity:1"
       d="m 161.72291,13.308208 5.42112,44.109831 10.96723,-42.900912 C 173.30445,6.8921128 167.71419,7.8925008 161.72291,13.308208 Z"
       id="path5566-4"
       inkscape:connector-curvature="0"
       sodipodi:nodetypes="cccc" />
    <ellipse
       style="opacity:1;fill:#b10d1e;fill-opacity:1;stroke:#0b0b0b;stroke-width:0.7486105;stroke-miterlimit:4;stroke-dasharray:none;stroke-dashoffset:0;stroke-opacity:1;paint-order:fill markers stroke"
       id="path5570-3"
       cx="168.26106"
       cy="66.483467"
       rx="3.0807214"
       ry="3.4806595" />
    <path
       style="fill:#f5ec07;fill-opacity:1;stroke:#0b0b0b;stroke-width:0.69999999;stroke-linecap:butt;stroke-linejoin:miter;stroke-miterlimit:4;stroke-dasharray:none;stroke-opacity:1"
       d="m 49.71213,77.037178 0.801809,-54.255713 c 0,0 27.133922,-0.407854 29.13238,9.621704 1.51823,7.619441 -17.63979,15.234361 -17.63979,15.234361 0,0 23.74294,10.408452 22.18337,20.312483 -1.43249,9.096968 -25.123336,11.49259 -25.123336,11.49259 0,0 12.969285,-7.127841 13.096208,-13.363475 0.151469,-7.441593 -14.967092,-16.570711 -14.967092,-16.570711 0,0 13.671886,-9.881312 11.759858,-16.303442 -0.531121,-1.783932 -3.538403,-2.819621 -5.211757,-2.00452 -14.365176,6.997362 -14.03165,45.836723 -14.03165,45.836723 z"
       id="path5560"
       inkscape:connector-curvature="0"
       sodipodi:nodetypes="ccacacacaac" />
    <path
       style="fill:#f5ec07;fill-opacity:1;stroke:#0b0b0b;stroke-width:0.69999999;stroke-linecap:butt;stroke-linejoin:miter;stroke-miterlimit:4;stroke-dasharray:none;stroke-opacity:1"
       d="m 107.15078,32.850079 c 0.17819,-3.765455 -7.358693,-5.987917 -10.571743,-4.016449 -11.49616,7.053822 -14.72768,31.649838 -4.32231,40.231578 6.13521,5.05996 22.802603,-7.016949 22.802603,-7.016949 0,0 -11.63713,1.999149 -15.301503,-1.588002 -5.93514,-5.810052 -7.71182,-17.816176 -3.09928,-24.7232 2.01449,-3.016587 10.320783,0.736357 10.492233,-2.886978 z"
       id="path5562"
       inkscape:connector-curvature="0"
       sodipodi:nodetypes="aaacaaa" />
    <path
       style="fill:#f5ec07;fill-opacity:1;stroke:#0b0b0b;stroke-width:0.69999999;stroke-linecap:butt;stroke-linejoin:miter;stroke-miterlimit:4;stroke-dasharray:none;stroke-opacity:1"
       d="m 116.79678,25.454159 6.94901,47.306705 32.07235,-8.819893 -2.40543,-5.34539 -22.45064,5.87993 -4.00904,-16.036173 15.23436,-3.741772 -1.87089,-5.078121 -12.2944,2.672694 -3.74177,-14.833459 18.70887,-4.944485 -3.74177,-5.345391 z"
       id="path5564"
       inkscape:connector-curvature="0"
       sodipodi:nodetypes="ccccccccccccc" />
    <path
       style="fill:#f5ec07;fill-opacity:1;stroke:#0b0b0b;stroke-width:0.69999999;stroke-linecap:butt;stroke-linejoin:miter;stroke-miterlimit:4;stroke-dasharray:none;stroke-opacity:1"
       d="m 157.68902,14.496109 8.55263,41.694047 6.41447,-41.961316 c -4.98903,-6.8714353 -9.97807,-5.4298002 -14.9671,0.267269 z"
       id="path5566"
       inkscape:connector-curvature="0"
       sodipodi:nodetypes="cccc" />
    <ellipse
       style="opacity:1;fill:#f5ec07;fill-opacity:1;stroke:#0b0b0b;stroke-width:0.69999999;stroke-miterlimit:4;stroke-dasharray:none;stroke-dashoffset:0;stroke-opacity:1;paint-order:fill markers stroke"
       id="path5570"
       cx="165.97438"
       cy="65.410957"
       rx="2.80633"
       ry="3.3408689" />
    <ellipse
       style="opacity:1;fill:#b10d1e;fill-opacity:1;stroke:#0b0b0b;stroke-width:0.7486105;stroke-miterlimit:4;stroke-dasharray:none;stroke-dashoffset:0;stroke-opacity:1;paint-order:fill markers stroke"
       id="path5570-3-4"
       cx="118.85986"
       cy="13.881238"
       rx="3.0807214"
       ry="3.4806595" />
    <ellipse
       style="opacity:1;fill:#f5ec07;fill-opacity:1;stroke:#0b0b0b;stroke-width:0.69999999;stroke-miterlimit:4;stroke-dasharray:none;stroke-dashoffset:0;stroke-opacity:1;paint-order:fill markers stroke"
       id="path5570-6"
       cx="116.57317"
       cy="12.808728"
       rx="2.80633"
       ry="3.3408689" />
    <ellipse
       style="opacity:1;fill:#b10d1e;fill-opacity:1;stroke:#0b0b0b;stroke-width:0.7486105;stroke-miterlimit:4;stroke-dasharray:none;stroke-dashoffset:0;stroke-opacity:1;paint-order:fill markers stroke"
       id="path5570-3-5"
       cx="131.95607"
       cy="11.475813"
       rx="3.0807214"
       ry="3.4806595" />
    <ellipse
       style="opacity:1;fill:#f5ec07;fill-opacity:1;stroke:#0b0b0b;stroke-width:0.69999999;stroke-miterlimit:4;stroke-dasharray:none;stroke-dashoffset:0;stroke-opacity:1;paint-order:fill markers stroke"
       id="path5570-7"
       cx="129.66939"
       cy="10.403304"
       rx="2.80633"
       ry="3.3408689" />
  </g>
</svg>
