<?xml version="1.0" encoding="UTF-8" standalone="no"?>
<!-- Created with Inkscape (http://www.inkscape.org/) -->

<svg
   xmlns:dc="http://purl.org/dc/elements/1.1/"
   xmlns:cc="http://creativecommons.org/ns#"
   xmlns:rdf="http://www.w3.org/1999/02/22-rdf-syntax-ns#"
   xmlns:svg="http://www.w3.org/2000/svg"
   xmlns="http://www.w3.org/2000/svg"
   xmlns:sodipodi="http://sodipodi.sourceforge.net/DTD/sodipodi-0.dtd"
   xmlns:inkscape="http://www.inkscape.org/namespaces/inkscape"
   width="170.06577mm"
   height="108.82404mm"
   viewBox="0 0 170.06577 108.82404"
   version="1.1"
   id="svg8"
   inkscape:version="0.92.1 r15371"
   sodipodi:docname="logo.svg">
  <defs
     id="defs2" />
  <sodipodi:namedview
     id="base"
     pagecolor="#ffffff"
     bordercolor="#666666"
     borderopacity="1.0"
     inkscape:pageopacity="0.0"
     inkscape:pageshadow="2"
     inkscape:zoom="0.7"
     inkscape:cx="327.21235"
     inkscape:cy="85.558955"
     inkscape:document-units="mm"
     inkscape:current-layer="layer1"
     showgrid="false"
     inkscape:snap-global="false"
     inkscape:window-width="1536"
     inkscape:window-height="793"
     inkscape:window-x="-8"
     inkscape:window-y="-8"
     inkscape:window-maximized="1"
     fit-margin-top="0"
     fit-margin-left="0"
     fit-margin-right="0"
     fit-margin-bottom="0" />
  <metadata
     id="metadata5">
    <rdf:RDF>
      <cc:Work
         rdf:about="">
        <dc:format>image/svg+xml</dc:format>
        <dc:type
           rdf:resource="http://purl.org/dc/dcmitype/StillImage" />
        <dc:title></dc:title>
      </cc:Work>
    </rdf:RDF>
  </metadata>
  <g
     inkscape:label="Layer 1"
     inkscape:groupmode="layer"
     id="layer1"
     transform="translate(-25.129623,-95.588198)">
    <g
       id="g4983">
      <path
         inkscape:connector-curvature="0"
         id="path4509-6"
         d="m 36.826592,103.43814 -0.840697,34.21939 6.445334,0.57999 8.687183,-22.6196 -1.681384,22.03961 5.604637,-0.29 1.961616,-41.17926 -8.40695,0.289995 -7.286031,31.319445 1.120929,-26.38953 z"
         style="fill:#050600;fill-opacity:1;stroke:#000000;stroke-width:0.53437001;stroke-linecap:butt;stroke-linejoin:miter;stroke-miterlimit:4;stroke-dasharray:none;stroke-opacity:1" />
      <path
         sodipodi:nodetypes="caacaac"
         inkscape:connector-curvature="0"
         id="path4511-9"
         d="m 81.383456,102.27817 c 0,0 -9.187254,-4.28678 -12.296201,-1.47913 -8.830439,7.97463 -10.316445,29.43796 -0.704707,36.37801 3.651137,2.63626 12.440443,-5.02942 12.440443,-5.02942 0,0 -8.052725,0.29338 -10.088344,-2.60996 -4.674409,-6.66697 -3.345531,-18.26314 1.681394,-24.64955 1.961029,-2.49137 8.967415,-2.60995 8.967415,-2.60995 z"
         style="fill:#050600;fill-opacity:1;stroke:#000000;stroke-width:0.53437001;stroke-linecap:butt;stroke-linejoin:miter;stroke-miterlimit:4;stroke-dasharray:none;stroke-opacity:1" />
      <path
         inkscape:connector-curvature="0"
         id="path4513-7"
         d="m 87.548558,111.558 -0.280233,4.63991 15.692985,-1.44996 -1.12093,-4.63993 z"
         style="fill:#050600;fill-opacity:1;stroke:#000000;stroke-width:0.53437001;stroke-linecap:butt;stroke-linejoin:miter;stroke-miterlimit:4;stroke-dasharray:none;stroke-opacity:1" />
      <path
         sodipodi:nodetypes="ccccccccccccc"
         inkscape:connector-curvature="0"
         id="path4515-7"
         d="m 114.5097,96.613817 16.99396,0.24641 -13.4952,15.524123 12.24565,0.73924 -0.74974,23.16295 -21.24245,-1.97132 1.99928,-5.91394 14.49485,2.46415 1.24956,-14.78487 -14.77948,-1.78746 12.03047,-13.49023 -12.24566,0.73924 z"
         style="fill:#050600;fill-opacity:1;stroke:#000000;stroke-width:0.53437001;stroke-linecap:butt;stroke-linejoin:miter;stroke-miterlimit:4;stroke-dasharray:none;stroke-opacity:1" />
      <path
         inkscape:connector-curvature="0"
         id="path4517-8"
         d="m 138.28159,97.599478 18.74334,-0.49283 -7.24743,42.629692 -16.99396,-1.47849 4.74831,-37.45498 h 2.49912 l -3.99859,34.2516 10.99609,1.47849 3.74868,-35.48368 z"
         style="fill:#050600;fill-opacity:1;stroke:#000000;stroke-width:0.53437001;stroke-linecap:butt;stroke-linejoin:miter;stroke-miterlimit:4;stroke-dasharray:none;stroke-opacity:1" />
      <path
         sodipodi:nodetypes="caaccccac"
         inkscape:connector-curvature="0"
         id="path4519-0"
         d="m 159.69552,103.06484 c 0,0 7.38917,-7.632327 12.04386,-7.190262 3.44258,0.326948 7.08504,3.441066 7.74724,6.899602 2.50764,13.0969 -17.49379,35.73008 -17.49379,35.73008 l 16.24423,-0.73924 -0.99964,5.42112 -23.49166,-0.98566 c 0,0 23.0766,-26.51685 15.87455,-38.3183 -1.7292,-2.8335 -9.92479,-0.81734 -9.92479,-0.81734 z"
         style="fill:#050600;fill-opacity:1;stroke:#000000;stroke-width:0.53437001;stroke-linecap:butt;stroke-linejoin:miter;stroke-miterlimit:4;stroke-dasharray:none;stroke-opacity:1" />
      <path
         inkscape:connector-curvature="0"
         id="path4509"
         d="m 40.090428,103.22959 -0.801807,31.53781 6.147197,0.53454 8.285355,-20.84703 -1.603615,20.31249 5.34539,-0.26727 1.870887,-37.952276 -8.018087,0.267269 -6.949008,28.865117 1.069078,-24.32154 z"
         style="fill:#fd060d;fill-opacity:1;stroke:#000000;stroke-width:0.50099999;stroke-linecap:butt;stroke-linejoin:miter;stroke-miterlimit:4;stroke-dasharray:none;stroke-opacity:1" />
      <path
         sodipodi:nodetypes="caacaac"
         inkscape:connector-curvature="0"
         id="path4511"
         d="m 82.586283,102.16052 c 0,0 -8.762289,-3.950843 -11.727435,-1.36322 -8.421974,7.3497 -9.839244,27.13108 -0.672108,33.52728 3.482248,2.42967 11.865003,-4.6353 11.865003,-4.6353 0,0 -7.680246,0.27039 -9.621703,-2.40543 -4.458194,-6.14452 -3.190778,-16.83197 1.603619,-22.71791 1.870324,-2.29614 8.552624,-2.40542 8.552624,-2.40542 z"
         style="fill:#fff903;fill-opacity:1;stroke:#000000;stroke-width:0.50099999;stroke-linecap:butt;stroke-linejoin:miter;stroke-miterlimit:4;stroke-dasharray:none;stroke-opacity:1" />
      <path
         inkscape:connector-curvature="0"
         id="path4513"
         d="m 88.466213,110.71314 -0.267269,4.27631 14.967086,-1.33634 -1.06908,-4.27632 z"
         style="fill:#01f404;fill-opacity:1;stroke:#000000;stroke-width:0.50099999;stroke-linecap:butt;stroke-linejoin:miter;stroke-miterlimit:4;stroke-dasharray:none;stroke-opacity:1" />
      <path
         inkscape:connector-curvature="0"
         id="path4515"
         d="m 114.18024,96.940054 16.20789,0.227104 -12.87097,14.307572 11.67922,0.68131 -0.71506,21.34781 -20.25986,-1.81684 1.9068,-5.4505 13.82438,2.27105 1.19176,-13.62627 -13.58603,-0.90841 10.96417,-13.17205 -11.67922,0.68131 z"
         style="fill:#fe69f9;fill-opacity:1;stroke:#000000;stroke-width:0.50099999;stroke-linecap:butt;stroke-linejoin:miter;stroke-miterlimit:4;stroke-dasharray:none;stroke-opacity:1" />
      <path
         inkscape:connector-curvature="0"
         id="path4517"
         d="m 136.85254,97.848471 17.87635,-0.45421 -6.91219,39.289049 -16.20789,-1.36263 4.52867,-34.51985 h 2.38352 l -3.81363,31.5675 10.48746,1.36263 3.57528,-32.70303 z"
         style="fill:#ffb93f;fill-opacity:1;stroke:#000000;stroke-width:0.50099999;stroke-linecap:butt;stroke-linejoin:miter;stroke-miterlimit:4;stroke-dasharray:none;stroke-opacity:1" />
      <path
         sodipodi:nodetypes="caaccccac"
         inkscape:connector-curvature="0"
         id="path4519"
         d="m 159.18775,103.07028 c 0,0 5.66226,-6.992217 9.57496,-6.811539 3.24601,0.149892 6.75732,3.171413 7.38889,6.358919 2.39165,12.07057 -16.6846,32.93012 -16.6846,32.93012 l 15.49284,-0.68131 -0.9534,4.9963 -22.40504,-0.90842 c 0,0 21.78379,-24.3652 15.14026,-35.31552 -1.30976,-2.15884 -7.55391,-0.56855 -7.55391,-0.56855 z"
         style="fill:#07f306;fill-opacity:1;stroke:#000000;stroke-width:0.50099999;stroke-linecap:butt;stroke-linejoin:miter;stroke-miterlimit:4;stroke-dasharray:none;stroke-opacity:1" />
      <ellipse
         ry="1.7848839"
         rx="1.7848837"
         cy="131.42651"
         cx="42.896755"
         id="path4559"
         style="opacity:1;fill:#fada09;fill-opacity:1;stroke:#ffffff;stroke-width:0.70599997;stroke-miterlimit:4;stroke-dasharray:none;stroke-dashoffset:0;stroke-opacity:1;paint-order:fill markers stroke" />
      <ellipse
         ry="1.7848839"
         rx="1.7848837"
         cy="108.70861"
         cx="51.983925"
         id="path4559-0"
         style="opacity:1;fill:#fc83f9;fill-opacity:1;stroke:#ffffff;stroke-width:0.70599997;stroke-miterlimit:4;stroke-dasharray:none;stroke-dashoffset:0;stroke-opacity:1;paint-order:fill markers stroke" />
      <ellipse
         ry="1.3499262"
         rx="1.2162912"
         cy="105.90228"
         cx="42.228584"
         id="path4559-0-1"
         style="opacity:1;fill:#fc83f9;fill-opacity:1;stroke:#ffffff;stroke-width:0.50683725;stroke-miterlimit:4;stroke-dasharray:none;stroke-dashoffset:0;stroke-opacity:1;paint-order:fill markers stroke" />
      <ellipse
         ry="2.3596473"
         rx="2.1591952"
         cy="101.3587"
         cx="55.257973"
         id="path4559-6"
         style="opacity:1;fill:#fada09;fill-opacity:1;stroke:#ffffff;stroke-width:0.89282066;stroke-miterlimit:4;stroke-dasharray:none;stroke-dashoffset:0;stroke-opacity:1;paint-order:fill markers stroke" />
      <ellipse
         ry="1.1154672"
         rx="1.1154671"
         cy="111.7822"
         cx="55.992966"
         id="path4559-9"
         style="opacity:1;fill:#fada09;fill-opacity:1;stroke:#ffffff;stroke-width:0.44121626;stroke-miterlimit:4;stroke-dasharray:none;stroke-dashoffset:0;stroke-opacity:1;paint-order:fill markers stroke" />
      <ellipse
         ry="1.9193454"
         rx="1.6520758"
         cy="112.85129"
         cx="42.362217"
         id="path4559-60"
         style="opacity:1;fill:#fada09;fill-opacity:1;stroke:#ffffff;stroke-width:0.70434636;stroke-miterlimit:4;stroke-dasharray:none;stroke-dashoffset:0;stroke-opacity:1;paint-order:fill markers stroke" />
      <ellipse
         ry="1.3499264"
         rx="1.2162913"
         cy="122.60664"
         cx="41.827682"
         id="path4559-0-1-8"
         style="opacity:1;fill:#fc83f9;fill-opacity:1;stroke:#ffffff;stroke-width:0.50683725;stroke-miterlimit:4;stroke-dasharray:none;stroke-dashoffset:0;stroke-opacity:1;paint-order:fill markers stroke" />
      <ellipse
         ry="1.3499264"
         rx="1.2162913"
         cy="117.79578"
         cx="48.776688"
         id="path4559-0-1-9"
         style="opacity:1;fill:#fc83f9;fill-opacity:1;stroke:#ffffff;stroke-width:0.50683725;stroke-miterlimit:4;stroke-dasharray:none;stroke-dashoffset:0;stroke-opacity:1;paint-order:fill markers stroke" />
      <ellipse
         ry="1.3499264"
         rx="1.2162913"
         cy="129.95654"
         cx="54.65662"
         id="path4559-0-1-1"
         style="opacity:1;fill:#fc83f9;fill-opacity:1;stroke:#ffffff;stroke-width:0.50683725;stroke-miterlimit:4;stroke-dasharray:none;stroke-dashoffset:0;stroke-opacity:1;paint-order:fill markers stroke" />
      <ellipse
         ry="1.1154672"
         rx="1.1154671"
         cy="121.27029"
         cx="55.859333"
         id="path4559-9-1"
         style="opacity:1;fill:#fada09;fill-opacity:1;stroke:#ffffff;stroke-width:0.44121626;stroke-miterlimit:4;stroke-dasharray:none;stroke-dashoffset:0;stroke-opacity:1;paint-order:fill markers stroke" />
      <ellipse
         ry="1.1154672"
         rx="1.1154671"
         cy="125.5466"
         cx="46.772167"
         id="path4559-9-8"
         style="opacity:1;fill:#fada09;fill-opacity:1;stroke:#ffffff;stroke-width:0.44121626;stroke-miterlimit:4;stroke-dasharray:none;stroke-dashoffset:0;stroke-opacity:1;paint-order:fill markers stroke" />
      <path
         inkscape:connector-curvature="0"
         id="path4672"
         d="m 88.666665,114.72218 4.276313,-4.20949"
         style="fill:none;stroke:#ffffff;stroke-width:0.565;stroke-linecap:butt;stroke-linejoin:miter;stroke-miterlimit:4;stroke-dasharray:none;stroke-opacity:1" />
      <path
         inkscape:connector-curvature="0"
         id="path4672-2"
         d="m 92.742526,114.35469 4.276313,-4.20949"
         style="fill:none;stroke:#ffffff;stroke-width:0.56500006;stroke-linecap:butt;stroke-linejoin:miter;stroke-miterlimit:4;stroke-dasharray:none;stroke-opacity:1" />
      <path
         inkscape:connector-curvature="0"
         id="path4672-7"
         d="m 97.687012,113.92037 4.276308,-4.20949"
         style="fill:none;stroke:#ffffff;stroke-width:0.56500006;stroke-linecap:butt;stroke-linejoin:miter;stroke-miterlimit:4;stroke-dasharray:none;stroke-opacity:1" />
      <ellipse
         ry="1.3363476"
         rx="1.1358955"
         cy="102.29415"
         cx="151.74226"
         id="path4701"
         style="opacity:1;fill:#f51e90;fill-opacity:1;stroke:none;stroke-width:0.60148835;stroke-miterlimit:4;stroke-dasharray:none;stroke-dashoffset:0;stroke-opacity:1;paint-order:fill markers stroke" />
      <ellipse
         ry="1.3363476"
         rx="1.2695303"
         cy="110.21102"
         cx="150.67795"
         id="path4701-4"
         style="opacity:1;fill:#f51e90;fill-opacity:1;stroke:none;stroke-width:0.63588643;stroke-miterlimit:4;stroke-dasharray:none;stroke-dashoffset:0;stroke-opacity:1;paint-order:fill markers stroke" />
      <ellipse
         ry="1.3363476"
         rx="1.2695303"
         cy="134.50012"
         cx="146.59734"
         id="path4701-4-9"
         style="opacity:1;fill:#f51e90;fill-opacity:1;stroke:none;stroke-width:0.63588643;stroke-miterlimit:4;stroke-dasharray:none;stroke-dashoffset:0;stroke-opacity:1;paint-order:fill markers stroke" />
      <ellipse
         ry="1.3363476"
         rx="1.2695303"
         cy="117.73486"
         cx="148.4453"
         id="path4701-4-96"
         style="opacity:1;fill:#f51e90;fill-opacity:1;stroke:none;stroke-width:0.63588643;stroke-miterlimit:4;stroke-dasharray:none;stroke-dashoffset:0;stroke-opacity:1;paint-order:fill markers stroke" />
      <ellipse
         ry="1.3363476"
         rx="1.2695303"
         cy="133.83195"
         cx="133.36749"
         id="path4701-4-94"
         style="opacity:1;fill:#f51e90;fill-opacity:1;stroke:none;stroke-width:0.63588643;stroke-miterlimit:4;stroke-dasharray:none;stroke-dashoffset:0;stroke-opacity:1;paint-order:fill markers stroke" />
      <ellipse
         ry="0.86387736"
         rx="0.84430707"
         cy="124.5345"
         cx="134.15172"
         id="path4701-4-8"
         style="opacity:1;fill:#f51e90;fill-opacity:1;stroke:none;stroke-width:0.41694096;stroke-miterlimit:4;stroke-dasharray:none;stroke-dashoffset:0;stroke-opacity:1;paint-order:fill markers stroke" />
      <ellipse
         ry="0.67488927"
         rx="0.70256603"
         cy="107.07535"
         cx="136.48022"
         id="path4701-4-7"
         style="opacity:1;fill:#f51e90;fill-opacity:1;stroke:none;stroke-width:0.33616936;stroke-miterlimit:4;stroke-dasharray:none;stroke-dashoffset:0;stroke-opacity:1;paint-order:fill markers stroke" />
      <ellipse
         ry="0.76938331"
         rx="0.70256603"
         cy="113.77604"
         cx="135.69345"
         id="path4701-4-5"
         style="opacity:1;fill:#f51e90;fill-opacity:1;stroke:none;stroke-width:0.35893288;stroke-miterlimit:4;stroke-dasharray:none;stroke-dashoffset:0;stroke-opacity:1;paint-order:fill markers stroke" />
      <ellipse
         ry="1.3363476"
         rx="1.2695303"
         cy="124.83185"
         cx="148.26115"
         id="path4701-4-85"
         style="opacity:1;fill:#f51e90;fill-opacity:1;stroke:none;stroke-width:0.63588643;stroke-miterlimit:4;stroke-dasharray:none;stroke-dashoffset:0;stroke-opacity:1;paint-order:fill markers stroke" />
      <ellipse
         ry="0.76938337"
         rx="0.70256603"
         cy="118.21726"
         cx="135.1265"
         id="path4701-4-5-8"
         style="opacity:1;fill:#ffffff;fill-opacity:1;stroke:none;stroke-width:0.35893288;stroke-miterlimit:4;stroke-dasharray:none;stroke-dashoffset:0;stroke-opacity:1;paint-order:fill markers stroke" />
      <ellipse
         ry="0.76938337"
         rx="0.70256603"
         cy="103.09822"
         cx="136.92188"
         id="path4701-4-5-8-0"
         style="opacity:1;fill:#ffffff;fill-opacity:1;stroke:none;stroke-width:0.35893288;stroke-miterlimit:4;stroke-dasharray:none;stroke-dashoffset:0;stroke-opacity:1;paint-order:fill markers stroke" />
      <ellipse
         ry="0.76938337"
         rx="0.70256603"
         cy="99.129463"
         cx="149.96205"
         id="path4701-4-5-8-6"
         style="opacity:1;fill:#ffffff;fill-opacity:1;stroke:none;stroke-width:0.35893288;stroke-miterlimit:4;stroke-dasharray:none;stroke-dashoffset:0;stroke-opacity:1;paint-order:fill markers stroke" />
      <ellipse
         ry="0.76938337"
         rx="0.70256603"
         cy="105.64956"
         cx="149.77307"
         id="path4701-4-5-8-8"
         style="opacity:1;fill:#ffffff;fill-opacity:1;stroke:none;stroke-width:0.35893288;stroke-miterlimit:4;stroke-dasharray:none;stroke-dashoffset:0;stroke-opacity:1;paint-order:fill markers stroke" />
      <ellipse
         ry="0.76938337"
         rx="0.70256603"
         cy="113.49256"
         cx="150.05655"
         id="path4701-4-5-8-1"
         style="opacity:1;fill:#ffffff;fill-opacity:1;stroke:none;stroke-width:0.35893288;stroke-miterlimit:4;stroke-dasharray:none;stroke-dashoffset:0;stroke-opacity:1;paint-order:fill markers stroke" />
      <ellipse
         ry="0.76938337"
         rx="0.70256603"
         cy="121.90253"
         cx="147.7887"
         id="path4701-4-5-8-7"
         style="opacity:1;fill:#ffffff;fill-opacity:1;stroke:none;stroke-width:0.35893288;stroke-miterlimit:4;stroke-dasharray:none;stroke-dashoffset:0;stroke-opacity:1;paint-order:fill markers stroke" />
      <ellipse
         ry="0.76938337"
         rx="0.70256603"
         cy="129.46205"
         cx="147.31622"
         id="path4701-4-5-8-79"
         style="opacity:1;fill:#ffffff;fill-opacity:1;stroke:none;stroke-width:0.35893288;stroke-miterlimit:4;stroke-dasharray:none;stroke-dashoffset:0;stroke-opacity:1;paint-order:fill markers stroke" />
      <ellipse
         ry="0.76938337"
         rx="0.70256603"
         cy="134.56474"
         cx="137.20537"
         id="path4701-4-5-8-65"
         style="opacity:1;fill:#ffffff;fill-opacity:1;stroke:none;stroke-width:0.35893288;stroke-miterlimit:4;stroke-dasharray:none;stroke-dashoffset:0;stroke-opacity:1;paint-order:fill markers stroke" />
      <ellipse
         ry="0.76938337"
         rx="0.70256603"
         cy="134.47023"
         cx="141.83556"
         id="path4701-4-5-8-12"
         style="opacity:1;fill:#ffffff;fill-opacity:1;stroke:none;stroke-width:0.35893288;stroke-miterlimit:4;stroke-dasharray:none;stroke-dashoffset:0;stroke-opacity:1;paint-order:fill markers stroke" />
      <ellipse
         ry="0.76938337"
         rx="0.70256603"
         cy="128.7061"
         cx="133.99257"
         id="path4701-4-5-8-794"
         style="opacity:1;fill:#ffffff;fill-opacity:1;stroke:none;stroke-width:0.35893288;stroke-miterlimit:4;stroke-dasharray:none;stroke-dashoffset:0;stroke-opacity:1;paint-order:fill markers stroke" />
    </g>
    <g
       id="g4936"
       transform="translate(3.4017857,-5.2916667)">
      <path
         sodipodi:nodetypes="ccccccccccccccccccccccccccccccccccccccccccccccccccccccccccccccccccccc"
         inkscape:connector-curvature="0"
         id="path4900"
         d="m 65.414217,180.73775 -12.160766,-3.8754 -2.338607,-1.67044 0.06682,-1.80407 -0.06682,-1.67043 -1.00226,-2.00453 -0.133636,-1.67043 1.403165,-1.67043 2.138156,-1.40317 1.069078,-1.5368 -0.133632,-1.73725 -2.104749,-0.83522 -2.372016,0.10023 -1.469982,0.53454 -1.937703,1.60361 -0.801809,2.07134 0.200451,2.73952 -1.603616,0.66817 -5.545843,-2.47224 -5.746295,-1.26953 -4.677217,-0.20045 -3.608138,1.00226 -0.467721,1.13589 0.801808,1.40317 2.271791,0.86862 2.939965,0.40091 2.873147,0.33408 1.002261,0.40091 -0.200451,1.26953 -3.741775,0.20045 -4.476764,0.0668 -2.672695,1.26953 -0.868626,1.00226 0.06682,1.60361 1.26953,0.60136 2.672696,0.13364 5.278574,-0.60136 -4.610402,2.00452 -1.469981,0.66817 -1.002261,1.26954 -0.200452,1.13589 0.935444,1.06908 1.469981,0.53454 1.469983,-0.60136 3.140416,-1.13589 1.937705,-0.93545 1.536801,-0.33409 0.534538,1.00227 -0.467723,1.20271 -1.135893,1.40316 -1.937705,2.93997 -0.467723,1.87089 0.601359,1.60361 1.469982,0.73499 1.870885,-0.8018 1.202714,-2.13816 1.336346,-3.00678 0.601359,-0.53454 1.202711,-0.33409 2.004523,-0.20045 2.672694,0.0668 2.53906,-1.26954 1.202714,-1.06907 6.013564,2.53906 8.15172,3.20723 7.082644,1.73725 -0.06682,-0.86862 -3.207234,-3.67496 z"
         style="fill:#ffb79f;fill-opacity:1;stroke:none;stroke-width:0.26458332px;stroke-linecap:butt;stroke-linejoin:miter;stroke-opacity:1" />
      <path
         inkscape:connector-curvature="0"
         id="path4883"
         d="m 129.22482,180.20321 16.1698,-3.07359 1.44913,-3.39711 1.22842,-2.59858 2.07887,-2.17337 1.03943,-1.65364 -0.28348,-2.31511 -0.61421,-2.50409 0.0945,-1.79539 c 0,0 0.85044,-0.61421 1.08668,-0.61421 0.23623,0 1.41741,0.0472 1.41741,0.0472 l 2.12611,0.94494 1.27567,1.51191 0.37798,2.22061 -0.56697,2.17336 -1.03943,2.26785 0.28348,0.70871 3.07106,-1.46466 4.44122,-1.41741 6.89806,-1.37016 4.44123,0.23623 1.37016,1.27567 -0.14174,1.27567 -0.99219,0.85045 -3.54353,0.51972 -3.40178,0.47247 -2.22061,1.03943 0.8032,0.61421 3.16555,-0.0473 5.57515,0.33073 2.22061,0.8032 c 0,0 0.14174,0.99219 0,1.18118 -0.14174,0.18899 -1.03944,1.5119 -1.03944,1.5119 l -2.4096,0.8977 -7.51227,0.23623 2.92931,1.37017 3.54353,1.74814 1.74814,2.36235 -0.75595,1.6064 -1.41741,0.75595 c 0,0 -1.46466,-0.0473 -1.74814,-0.23624 -0.28349,-0.18898 -3.68527,-2.3151 -3.68527,-2.3151 l -2.4096,-0.89769 -1.22842,0.23623 1.18117,1.70089 1.74814,2.64584 0.56697,2.17336 0.0945,1.27567 -0.99219,1.03943 -1.03943,1.74814 -1.74814,-0.47247 c 0,0 -0.99219,-0.8032 -0.99219,-1.41741 0,-0.61421 -0.7087,-3.07105 -0.7087,-3.07105 l -1.32292,-1.27567 -4.34673,-0.51972 -2.74032,-0.23624 -1.27567,-0.80319 -2.55134,-2.26786 -4.20499,1.41741 -8.50446,2.03162 -7.37054,1.32292 c 0,0 -0.41681,-5.67393 0.38219,-6.61673 z"
         style="fill:#ffb79f;fill-opacity:1;stroke:none;stroke-width:0.26458332px;stroke-linecap:butt;stroke-linejoin:miter;stroke-opacity:1" />
      <path
         sodipodi:nodetypes="ccccccccccccccccccccccccccccccccccccascc"
         inkscape:connector-curvature="0"
         id="path4879"
         d="m 72.830946,179.4014 -1.603619,-3.34086 h -2.138156 l -2.00452,0.66817 -1.603619,4.00904 0.400905,2.80633 1.33635,2.40543 3.207234,1.73725 0.935442,-0.66817 1.469983,-2.40543 3.073598,6.1472 8.68626,5.21176 11.759859,2.27179 12.695307,-2.40543 7.34991,-4.27631 5.34539,-6.41447 0.80181,1.73725 1.87088,0.66818 2.80633,-1.20272 1.40317,-4.27632 v -3.60813 l -2.20497,-1.87088 -2.40543,1.06907 -1.20271,1.46999 -0.40091,-5.07813 -3.20793,6.19306 c -0.66368,-3.71995 0.004,-6.77693 -2.27109,-10.33573 l -3.34087,5.07812 c -0.35063,-3.89839 -2.45548,-6.21797 -4.54358,-8.55263 l -2.6727,2.40543 -4.81085,-3.74177 -0.66817,4.54358 -3.340873,0.4009 0.400904,-4.67721 -4.142679,4.67721 -4.543581,0.26727 c 0,0 5.021336,-4.01899 3.407686,-5.41221 -5.260713,-4.54207 -14.505699,6.07448 -15.835718,13.56393 -0.501082,2.82164 -1.053121,-5.55696 -1.202714,-5.21175 z"
         style="fill:#ffb79f;fill-opacity:1;stroke:none;stroke-width:0.26458332px;stroke-linecap:butt;stroke-linejoin:miter;stroke-opacity:1" />
      <path
         inkscape:connector-curvature="0"
         id="path4904"
         d="m 100.49442,172.4096 -0.850449,1.93712 -0.377976,2.78758 0.992185,1.70089 1.84264,0.85045 1.55915,-0.42523 1.18117,-1.70089 0.61422,-2.83482 -0.23624,-1.6064 -1.93713,-1.74814 z"
         style="fill:#ffffff;fill-opacity:1;stroke:none;stroke-width:0.26458332px;stroke-linecap:butt;stroke-linejoin:miter;stroke-opacity:1" />
      <path
         inkscape:connector-curvature="0"
         id="path4902"
         d="m 70.69279,187.55313 -2.873148,8.0849 1.202714,0.66817 c 0,0 3.875408,0 4.142676,0 0.267269,0 3.80859,0 3.80859,0 l 1.33635,-0.8018 1.336347,1.80406 2.138156,3.14042 2.271792,2.87315 c 0,0 1.603615,1.13589 1.937702,1.20271 0.334087,0.0668 4.142679,1.87089 4.142679,1.87089 l 4.877668,1.06908 6.347654,-0.26727 7.08264,-2.53906 4.34313,-3.20724 2.87315,-4.87767 0.86862,-2.33861 4.87767,-0.4009 5.87993,-0.86863 1.67043,-7.88445 -0.4009,-1.80407 -2.07134,3.14042 -2.40542,1.46998 -2.40543,-2.07133 v -0.80181 l -7.14946,7.34991 c 0,0 -8.61944,3.94222 -8.88671,4.07586 -0.26727,0.13363 -9.354435,1.73725 -9.354435,1.73725 l -8.352171,-1.00226 -8.619442,-3.87541 -3.073601,-2.33861 -3.608139,-5.74629 z"
         style="fill:#09dd05;fill-opacity:1;stroke:#000000;stroke-width:0.26458332px;stroke-linecap:butt;stroke-linejoin:miter;stroke-opacity:1" />
      <path
         inkscape:connector-curvature="0"
         id="path4881"
         d="m 73.098215,179.33459 c 0.200453,-0.33409 2.739514,-5.94675 2.739514,-5.94675 l 0.734989,5.67948 5.211757,-8.0849 3.808589,-2.93997 4.877671,-2.20497 1.937702,-0.26727 -2.806329,4.14267 4.075861,0.0668 4.142676,-4.47676 -0.200451,4.54358 3.207236,-0.26727 0.66817,-4.74403 3.34087,2.40542 2.40543,3.87541 -0.20046,1.00226 1.67044,-5.47902 2.67269,2.60587 1.5368,2.80633 0.80181,3.00679 3.0736,-4.81086 1.80407,2.93997 0.80181,5.41221 0.0668,1.60361 2.73951,-5.74629 0.80181,2.47224 -0.13364,1.5368 2.33861,-1.87089 1.1359,-5.27857 v -3.27405 l -1.00226,-2.80633 -3.20724,-2.20497 -2.20497,-1.00226 -2.33861,-0.26727 -2.6727,-0.13364 2.20498,-1.20271 3.80859,-0.86863 h 2.53906 l -1.60362,-1.87088 -2.67269,-1.1359 -2.93997,-0.46772 -1.67043,0.13363 -2.20497,0.20046 -2.93997,0.8018 -2.40543,1.20272 -1.53679,0.86862 2.00452,-3.40768 2.20497,-2.53906 -4.14268,1.06907 -1.73725,0.86863 -2.67269,1.20271 -2.40543,1.73726 -0.133635,0.0668 0.267269,-1.5368 1.870886,-1.9377 3.34087,-2.00452 3.54132,-1.67044 4.40995,-1.00226 1.06908,-0.33408 -1.20272,-3.20724 -1.5368,0.0668 -4.27631,1.46998 -2.27179,1.33635 -1.40317,1.26953 -3.407681,2.60588 -3.407688,4.74403 -0.534537,0.73499 0.200451,-3.4745 -1.135896,-1.93771 -2.204971,-2.13815 -2.539061,-1.33635 -2.472243,-1.06908 -1.33635,-0.0668 -2.271789,1.9377 -0.935445,1.46998 5.479026,1.1359 3.407685,1.13589 1.33635,1.1359 0.868624,2.13815 -0.267268,1.26953 -1.069079,0.13364 c 0,0 -1.670433,-1.00226 -2.00452,-1.1359 -0.334087,-0.13363 -5.278575,-1.06907 -5.278575,-1.06907 l -4.075858,0.33408 1.603615,1.33635 0.400905,0.93544 -6.280833,1.26953 -4.87767,2.93997 -1.269529,1.87089 2.539061,-0.86863 1.403164,0.13363 -2.806329,3.40769 -1.870887,4.00904 -0.668174,3.67496 h 1.469983 l 1.737251,1.1359 z"
         style="fill:#fb884c;fill-opacity:1;stroke:none;stroke-width:0.26458332px;stroke-linecap:butt;stroke-linejoin:miter;stroke-opacity:1" />
      <path
         inkscape:connector-curvature="0"
         id="path4904-6"
         d="m 90.608999,172.34088 -0.850449,1.93712 -0.377976,2.78758 0.992185,1.70089 1.84264,0.85045 1.55915,-0.42523 1.18117,-1.70089 0.61422,-2.83482 -0.23624,-1.6064 -1.93713,-1.74814 z"
         style="fill:#ffffff;fill-opacity:1;stroke:none;stroke-width:0.26458332px;stroke-linecap:butt;stroke-linejoin:miter;stroke-opacity:1" />
      <path
         inkscape:connector-curvature="0"
         id="path4921"
         d="m 90.804822,187.28586 0.935442,3.27405 h 10.223056 l -1.13589,-2.93997 z"
         style="fill:#ffffff;fill-opacity:1;stroke:#000000;stroke-width:0.26458332px;stroke-linecap:butt;stroke-linejoin:miter;stroke-opacity:1" />
      <path
         inkscape:connector-curvature="0"
         id="path4923"
         d="m 95.983167,195.10349 5.044713,-1.00226 2.3052,-2.37202 -1.87089,-1.26953 -10.356691,1.06908 c 0,0 -0.935442,1.06908 -0.868627,1.20271 0.06682,0.13364 0.701583,1.36976 0.701583,1.36976 l 2.572469,1.1693 z"
         style="fill:#f90606;fill-opacity:1;stroke:#000000;stroke-width:0.26458332px;stroke-linecap:butt;stroke-linejoin:miter;stroke-opacity:1" />
      <path
         inkscape:connector-curvature="0"
         id="path4496"
         d="m 93.973063,207.70268 c -0.84962,-0.14145 -1.97085,-0.3963 -2.49162,-0.56635 -1.89554,-0.61892 -5.752586,-2.44849 -6.956233,-3.29964 -1.345283,-0.9513 -3.336407,-3.33926 -4.872197,-5.84323 -0.503303,-0.82059 -1.022355,-1.57 -1.15345,-1.66535 -0.154306,-0.11223 -0.600399,-0.0697 -1.265072,0.12071 -0.76392,0.21879 -1.90362,0.29847 -4.452691,0.3113 -2.961022,0.0149 -3.532548,-0.0292 -4.211233,-0.32469 l -0.785257,-0.34194 0.02731,-3.65408 c 0.03147,-4.20975 0.102304,-4.05154 -2.046001,-4.56957 -4.696486,-1.1325 -8.185409,-2.30631 -11.795703,-3.96856 -2.066543,-0.95148 -3.981975,-1.79093 -4.256516,-1.86545 -0.274542,-0.0745 -0.836587,-0.28462 -1.248989,-0.4669 l -0.749822,-0.3314 -0.568388,0.51993 c -0.312611,0.28596 -1.143138,0.75262 -1.845613,1.03702 -1.160683,0.4699 -1.495115,0.51816 -3.66503,0.52891 -1.767251,0.009 -2.551593,0.0875 -3.018049,0.30303 -0.685895,0.31692 -0.768869,0.43984 -1.752896,2.59684 -1.10929,2.43158 -2.555289,4.09426 -3.560695,4.09426 -0.698474,0 -1.574079,-0.50777 -2.057376,-1.19309 -0.385304,-0.54636 -0.444434,-0.83189 -0.35376,-1.70825 0.142346,-1.37575 0.679753,-2.40231 2.247764,-4.29368 0.971376,-1.1717 1.291005,-1.7098 1.308481,-2.20284 0.0498,-1.40488 -1.032276,-1.29029 -4.716847,0.49952 -2.893833,1.4057 -3.253709,1.46134 -4.644227,0.71798 -1.633565,-0.87329 -1.683697,-2.13068 -0.144756,-3.63075 0.711431,-0.69347 1.250721,-1.00817 2.37,-1.383 2.336304,-0.78238 1.868935,-0.99019 -1.415311,-0.62929 -2.057886,0.22614 -3.13973,0.0283 -3.789128,-0.69286 -0.623452,-0.69237 -0.467168,-1.8662 0.348751,-2.61945 1.369393,-1.2642 3.504717,-1.7843 7.342857,-1.78851 2.343969,-0.003 3.737429,-0.23504 3.737429,-0.62352 0,-0.42621 -0.504405,-0.63066 -2.035146,-0.82489 -0.822056,-0.10431 -2.155264,-0.27327 -2.962684,-0.37546 -1.677808,-0.21235 -3.672563,-1.01617 -4.324646,-1.74268 -0.892152,-0.99397 -0.366058,-2.08373 1.359326,-2.81573 1.928624,-0.81821 6.812209,-0.6202 11.433195,0.46358 1.93055,0.45279 3.206816,0.92408 5.423904,2.00292 2.327341,1.13248 2.941242,0.83371 2.941242,-1.43143 0,-1.64406 0.492351,-2.90764 1.50992,-3.87511 1.272027,-1.20939 2.096062,-1.5141 4.094621,-1.5141 1.992178,0 2.962549,0.3037 3.413788,1.06843 0.724951,1.2286 0.257457,2.50742 -1.345265,3.67994 -2.180164,1.59496 -3.067216,2.37328 -3.188828,2.79792 -0.07725,0.26972 0.103184,0.93483 0.479008,1.76575 0.84557,1.86949 1.13629,3.23966 0.868034,4.0911 -0.210712,0.6688 -0.194323,0.70079 0.76604,1.49536 0.838048,0.69337 1.43618,0.95656 4.095881,1.80225 6.661205,2.11804 8.910861,2.77962 9.163275,2.69474 0.144294,-0.0485 0.370433,-0.44 0.502534,-0.86994 0.1321,-0.42994 0.411801,-1.07652 0.621554,-1.43685 0.363361,-0.62419 1.552621,-1.68355 2.054636,-1.8302 0.129579,-0.0379 0.557839,-1.23896 0.951689,-2.66912 0.80211,-2.91263 1.948446,-5.49402 3.079938,-6.93558 0.415941,-0.52992 0.756256,-1.03619 0.756256,-1.12504 0,-0.32875 -0.984573,-0.14625 -1.879972,0.34847 -0.507705,0.28052 -1.054478,0.57985 -1.215055,0.66518 -0.236338,0.1256 -0.266327,0.0429 -0.157422,-0.43435 0.192828,-0.84495 0.80276,-1.51602 2.59808,-2.8585 2.122378,-1.58705 4.318401,-2.51541 7.19487,-3.04159 1.562669,-0.28585 2.302503,-0.50189 2.342622,-0.68407 0.03442,-0.1563 -0.459097,-0.5599 -1.194978,-0.97725 -0.689489,-0.39105 -1.179774,-0.77571 -1.089519,-0.85481 0.598632,-0.52462 5.657778,-0.67924 7.99912,-0.24446 0.7781,0.14449 2.15917,0.61084 3.07385,1.03796 1.87178,0.87403 2.04487,0.83075 2.05055,-0.51273 0.002,-0.55214 -0.17669,-0.98525 -0.67164,-1.6249 -0.8717,-1.12656 -2.43397,-1.88371 -5.208002,-2.52405 -3.041548,-0.70209 -4.767939,-1.20233 -5.102906,-1.4786 -0.24877,-0.20519 -0.115433,-0.43097 0.89148,-1.50957 1.405132,-1.50518 2.398234,-2.20926 3.116129,-2.20926 0.763532,0 3.828619,1.43719 5.395639,2.52996 1.52204,1.0614 3.10403,2.53809 3.61309,3.37257 0.18698,0.30652 0.44318,1.17144 0.56932,1.92206 l 0.22936,1.36475 0.37827,-0.63688 c 0.64683,-1.08903 4.001467,-4.64758 5.663917,-6.0082 3.07069,-2.51318 6.32998,-4.04894 9.42165,-4.43944 l 0.95562,-0.1207 0.5765,1.7813 c 0.31708,0.97972 0.61516,1.86992 0.6624,1.97823 0.0517,0.11843 -0.51775,0.29057 -1.4283,0.43181 -2.52917,0.39232 -4.07453,0.88853 -7.30259,2.34484 -3.50881,1.58296 -4.64039,2.35868 -5.406727,3.70642 -0.77935,1.37062 -0.40878,1.45327 1.262527,0.28158 2.38859,-1.67454 4.23715,-2.44468 7.7602,-3.23299 2.2981,-0.51422 2.51069,-0.30681 0.97749,0.95362 -1.62538,1.3362 -3.22171,3.77926 -2.46942,3.77926 0.0973,0 0.49441,-0.20399 0.88245,-0.45332 3.35113,-2.15321 8.25492,-2.71571 11.9178,-1.36705 1.33751,0.49246 1.93956,0.85452 3.09066,1.85862 0.78627,0.68587 1.36984,1.29938 1.29683,1.36337 -0.073,0.064 -0.64313,0.0982 -1.26694,0.0761 -0.6238,-0.0221 -1.70916,0.0512 -2.41189,0.16284 -1.50929,0.23985 -3.66887,1.03282 -3.39272,1.24575 0.10585,0.0816 0.84649,0.2492 1.64589,0.3724 3.20734,0.49432 6.42715,2.60196 7.35115,4.81198 1.02265,2.44595 0.99344,5.47799 -0.0813,8.44411 -0.52669,1.45352 -0.47823,1.67278 0.37108,1.67911 0.87247,0.007 2.63704,1.27981 2.63704,1.90287 0,0.12894 0.19365,0.4502 0.43034,0.7139 0.56075,0.62476 1.03168,0.61934 5.54089,-0.0638 5.54879,-0.84069 9.34071,-1.75837 10.25193,-2.48108 0.21797,-0.17287 0.63956,-1.01657 0.93686,-1.87488 0.75081,-2.16763 1.25874,-2.97344 2.96498,-4.70387 0.81507,-0.82662 1.57248,-1.71162 1.68313,-1.96667 0.33046,-0.76174 0.22988,-2.14247 -0.2527,-3.46881 -0.2724,-0.74868 -0.45919,-1.74435 -0.46718,-2.49023 -0.0126,-1.17993 0.021,-1.26965 0.66478,-1.77418 1.88536,-1.47751 5.69186,0.51597 6.14737,3.21941 0.20714,1.22937 -0.18625,3.24876 -0.87477,4.49045 -0.70791,1.27664 -0.58198,1.64074 0.36343,1.05077 1.46886,-0.91663 4.30829,-1.8836 7.86798,-2.67945 3.23598,-0.72348 4.02671,-0.83344 6.62563,-0.92142 3.28228,-0.11111 3.87532,0.001 4.73558,0.89722 0.9825,1.0233 0.49043,2.48041 -1.0377,3.07281 -0.57444,0.22269 -1.95107,0.44118 -3.80421,0.60378 -3.01005,0.26412 -4.81732,0.73742 -4.81732,1.26161 0,0.22156 0.72448,0.27692 4.41224,0.33713 4.78793,0.0782 5.46319,0.19917 6.64432,1.19064 1.30234,1.09322 0.10863,3.0667 -2.23208,3.69013 -0.4568,0.12167 -2.25632,0.27301 -3.99894,0.33631 -1.86502,0.0678 -3.17608,0.18996 -3.18708,0.29708 -0.0103,0.10008 0.79303,0.46856 1.78513,0.81885 2.83348,1.00043 5.13097,3.06714 5.13097,4.61555 0,1.35444 -1.16145,2.40314 -2.62793,2.37283 -1.04962,-0.0217 -1.98801,-0.4399 -4.4173,-1.96864 -2.01365,-1.26718 -3.17041,-1.67641 -3.17041,-1.12162 0,0.16734 0.36823,0.89408 0.81829,1.61495 1.83541,2.93987 2.43524,4.94615 1.86901,6.25137 -0.34627,0.79817 -1.66364,2.20814 -2.26814,2.42758 -0.66584,0.24171 -1.37404,0.0399 -2.00239,-0.57067 -0.64426,-0.62601 -0.8505,-1.04824 -1.00937,-2.06644 -0.20482,-1.31275 -0.9958,-2.66487 -1.80355,-3.08303 -0.52867,-0.27369 -1.25108,-0.37588 -3.29089,-0.46553 -3.07765,-0.13525 -3.92795,-0.416 -5.77445,-1.90657 -1.72488,-1.39239 -1.79642,-1.4118 -3.25468,-0.88309 -3.08752,1.11942 -11.98962,3.1304 -15.66496,3.53871 -2.59832,0.28866 -2.70494,0.38778 -3.30862,3.07576 -0.58721,2.61466 -1.25648,3.99992 -1.9326,4.00013 -1.19127,3.7e-4 -5.17135,0.40366 -6.35839,0.64427 -0.72147,0.14624 -1.76809,0.43793 -2.32583,0.6482 -0.98205,0.37024 -1.03434,0.42912 -1.6561,1.86493 -2.01709,4.65793 -7.69113,9.00275 -13.70491,10.49434 -2.03646,0.5051 -6.293807,0.64328 -8.500527,0.27589 z m 6.00891,-0.9101 c 2.448787,-0.32747 4.458197,-0.92242 6.853327,-2.02915 4.70811,-2.17551 8.32191,-6.68827 9.64732,-12.04714 0.16611,-0.67162 0.58668,-0.91208 1.03057,-0.58923 0.25071,0.18235 0.24701,0.32885 -0.026,1.03104 -0.17502,0.45017 -0.27534,0.85607 -0.22293,0.902 0.0524,0.0459 0.46002,-0.0511 0.9058,-0.21555 1.06579,-0.39326 4.14945,-0.79462 6.11742,-0.79623 0.9347,-7.3e-4 1.7062,-0.0933 1.9075,-0.22875 0.71543,-0.48143 1.79343,-4.2781 1.95043,-6.86926 0.0912,-1.5056 0.0852,-1.53053 -0.22552,-0.93781 -0.46578,0.88845 -1.48306,1.95377 -2.27551,2.38299 -1.37703,0.74584 -3.17657,0.32184 -3.72219,-0.87702 l -0.2881,-0.63304 -0.38523,0.53285 c -1.0721,1.48297 -2.93174,3.43905 -4.4157,4.64471 -1.46288,1.18853 -5.66254,3.65542 -8.16973,4.79892 -0.42126,0.19213 -0.71049,0.42795 -0.64273,0.52403 0.0678,0.0961 0.0215,0.11961 -0.10283,0.0523 -0.12432,-0.0673 -1.14319,0.20028 -2.26416,0.59471 -3.0429,1.07067 -4.77717,1.33707 -8.786257,1.34967 -3.00603,0.009 -3.75684,-0.052 -6.12523,-0.50088 -4.581736,-0.86847 -7.128682,-1.7808 -10.5653,-3.78456 -1.041038,-0.60699 -2.005483,-1.10523 -2.143207,-1.1072 -0.137727,-0.002 -0.212851,-0.0568 -0.166943,-0.12194 0.04591,-0.0651 -0.50784,-0.62215 -1.230549,-1.23789 -1.475696,-1.25729 -2.368346,-2.36747 -3.61586,-4.49703 -0.539216,-0.92046 -0.854381,-1.30538 -0.857128,-1.04684 -0.0024,0.2249 -0.316904,0.71621 -0.698926,1.09181 -0.565537,0.55602 -0.782617,1.02098 -1.168407,2.50257 -0.260603,1.00082 -0.839929,2.7508 -1.287391,3.88885 -0.447463,1.13805 -0.76794,2.10917 -0.712171,2.15805 0.258458,0.2265 3.376873,0.38925 5.627451,0.29369 1.786879,-0.0759 2.75516,-0.20516 3.423372,-0.45708 1.233701,-0.46511 1.77366,-0.32812 2.092024,0.53075 0.623802,1.68287 3.319385,5.36266 4.973851,6.78991 1.962769,1.6932 6.258974,3.4478 9.540074,3.89622 2.36909,0.32378 3.6753,0.32628 6.02886,0.0116 z m -9.59014,-8.22887 c 0.14989,-0.0526 0.32898,-0.0461 0.39797,0.0144 0.069,0.0605 -0.0536,0.10347 -0.27252,0.0956 -0.24188,-0.009 -0.29108,-0.0519 -0.12545,-0.10994 z m 9.797777,-1.2346 c 3.70776,-0.44218 9.04462,-2.29809 12.39699,-4.31111 2.71323,-1.62923 6.84362,-5.56589 8.42434,-8.02923 0.58032,-0.90434 0.99989,-0.80856 1.42505,0.32533 0.41797,1.11471 1.20151,1.90998 1.8818,1.90998 1.76184,0 4.11017,-3.87476 4.11017,-6.78179 0,-1.50614 -0.20016,-2.10174 -0.93615,-2.78565 -0.53404,-0.49624 -0.83005,-0.62272 -1.45748,-0.62272 -0.68546,0 -0.94855,0.14128 -2.03315,1.0918 -0.68519,0.6005 -1.26836,1.09181 -1.29592,1.09181 -0.0276,0 -0.11734,-0.94297 -0.19951,-2.09548 -0.0822,-1.15251 -0.21736,-2.13228 -0.30042,-2.17727 -0.083,-0.045 -0.3555,0.58779 -0.60543,1.40616 -0.54329,1.77893 -2.20562,4.94509 -2.50982,4.78033 -0.11733,-0.0635 -0.21333,-0.67524 -0.21333,-1.3593 0,-1.56797 -0.3657,-4.78341 -0.65287,-5.74051 -0.30887,-1.02937 -1.28029,-3.18442 -1.43544,-3.18442 -0.0715,0 -0.23644,0.30707 -0.3666,0.68237 -0.24289,0.70033 -2.11849,3.57907 -2.62231,4.02481 -0.4481,0.39645 -0.66672,0.1135 -0.80443,-1.04113 -0.23274,-1.95146 -1.17478,-3.90069 -2.85339,-5.90407 -1.01941,-1.21666 -1.44539,-1.4002 -1.43251,-0.61723 0.009,0.56814 -1.32402,5.03885 -1.50282,5.03885 -0.0819,0 -0.24966,-0.34801 -0.37292,-0.77336 -0.72874,-2.51487 -2.01882,-4.48935 -3.88632,-5.94806 -0.6389,-0.49905 -1.22616,-0.87242 -1.30502,-0.82971 -0.0789,0.0427 -0.20741,1.00151 -0.28566,2.13066 -0.0846,1.22115 -0.24566,2.1436 -0.39742,2.27661 -0.14033,0.12298 -1.071617,0.2786 -2.069547,0.34582 -2.08168,0.14023 -1.92849,0.32344 -1.5873,-1.89845 0.12492,-0.81343 0.19063,-1.57488 0.14604,-1.69212 -0.0446,-0.11724 -0.72322,0.58075 -1.50806,1.55108 -0.78484,0.97034 -1.60653,1.84846 -1.82598,1.95139 -0.42686,0.20021 -5.00532,0.15195 -5.24077,-0.0552 -0.19078,-0.16788 0.16624,-0.70686 1.69389,-2.55727 1.53704,-1.86178 1.44797,-1.94133 -1.1136,-0.99455 -5.121429,1.89293 -9.513251,6.24832 -11.685224,11.58828 -0.656758,1.61469 -0.895573,1.82025 -1.372947,1.18175 -0.391688,-0.52389 -0.900608,-2.34839 -0.91334,-3.27437 -0.01784,-1.29667 -0.369935,-1.00751 -1.032305,0.84777 -0.925647,2.59271 -1.282789,3.42846 -1.465095,3.42846 -0.08572,0 -0.222078,-0.38703 -0.30302,-0.86007 -0.305311,-1.78428 -1.501963,-3.06984 -3.023937,-3.24861 -1.285653,-0.15101 -2.180823,0.39603 -3.001276,1.83409 -0.580512,1.0175 -0.622502,1.22803 -0.616998,3.09344 0.0049,1.66758 0.08741,2.18103 0.494282,3.07649 0.521595,1.14797 1.785276,2.41156 2.93102,2.9308 0.655387,0.29702 0.685837,0.29355 1.173029,-0.13341 0.275098,-0.24109 0.756624,-1.0472 1.070057,-1.79136 0.725138,-1.72163 1.083957,-1.76813 1.44091,-0.18674 0.4913,2.17658 2.840874,5.34539 5.169846,6.97246 2.179322,1.52251 5.81572,3.29421 8.746412,4.26135 1.213086,0.40033 4.099406,1.02853 5.545806,1.20704 1.44964,0.1789 5.55735,0.10535 7.578677,-0.1357 z m -6.968637,-1.89389 c -1.73806,-0.39536 -4.57747,-2.2601 -5.25957,-3.45414 -0.563045,-0.98562 -0.694164,-1.56201 -0.83171,-3.65615 l -0.1249,-1.9016 -1.288562,-0.65217 c -0.708708,-0.35869 -1.508933,-0.8336 -1.778279,-1.05536 -0.716725,-0.59009 -0.982041,-0.50839 -0.982041,0.3024 0,0.87979 -0.521747,1.36642 -0.934558,0.87166 -0.200461,-0.24026 -0.213121,-0.4727 -0.05096,-0.93574 0.146717,-0.41895 0.149092,-0.91152 0.0074,-1.53944 -0.345918,-1.53322 0.427169,-1.99404 1.072939,-0.63955 0.430228,0.90239 3.217741,2.44524 6.188251,3.42512 2.74408,0.90519 4.21034,1.07496 8.42405,0.97539 4.349267,-0.10278 5.473737,-0.30678 8.551827,-1.55141 2.30568,-0.93231 6.15604,-3.19461 6.34057,-3.72543 0.22803,-0.65596 0.73697,-1.04357 1.37024,-1.04357 0.66757,0 0.78585,0.35953 0.24711,0.75108 -0.83899,0.60978 -1.09094,1.90063 -0.65182,3.33951 0.28598,0.93707 0.073,1.30092 -0.64474,1.10129 -0.39161,-0.10892 -0.43618,-0.25953 -0.43618,-1.47381 0,-0.74387 -0.085,-1.3525 -0.18881,-1.3525 -0.10385,0 -0.87469,0.50149 -1.71299,1.11441 -1.55249,1.1351 -2.68287,2.30683 -3.65613,3.78986 -2.50143,3.81161 -4.92836,5.95508 -7.834517,6.91946 -1.3421,0.44536 -4.62006,0.66516 -5.82665,0.39069 z m 5.51061,-1.37123 c 1.750927,-0.53857 3.119107,-1.25936 3.119107,-1.64322 0,-0.3124 -0.93396,-0.98159 -1.56312,-1.11997 -0.25161,-0.0554 -0.830287,-0.0127 -1.285957,0.0949 -0.99921,0.2358 -2.8232,1.41036 -2.6255,1.6907 0.0794,0.11259 0.0451,0.14732 -0.0791,0.0801 -0.12062,-0.0653 -0.54664,0.16809 -0.94672,0.51871 -0.46878,0.41082 -0.84517,0.59789 -1.05858,0.52612 -0.54801,-0.1843 -0.37673,-0.67572 0.44745,-1.28376 0.83784,-0.61811 0.80906,-0.85493 -0.10088,-0.83032 -0.68356,0.0185 -2.81151,0.84491 -3.18146,1.23557 -0.35447,0.37432 -0.0764,0.5881 1.29158,0.99289 1.57182,0.46511 3.95988,0.36067 5.98316,-0.26166 z m -4.07021,-4.16228 c 0.47499,-0.30438 0.71657,-1.7284 0.31229,-1.84076 -0.15751,-0.0438 -0.87035,-0.11938 -1.5841,-0.16802 l -1.29771,-0.0884 v 0.78838 c 0,0.63498 0.10646,0.86178 0.54708,1.16554 0.62051,0.42775 1.48317,0.48887 2.02244,0.14329 z m 3.85314,-0.21472 c 0.57199,-0.25922 0.98202,-1.02896 0.73484,-1.37947 -0.0673,-0.0955 -0.8748,-0.1736 -1.79436,-0.1736 h -1.67193 l 0.14551,0.68238 c 0.08,0.3753 0.24201,0.78473 0.35998,0.90983 0.29093,0.30854 1.50592,0.28718 2.22596,-0.0391 z m -1.86727,-4.52159 c -1.42267,-0.35024 -2.32301,-0.88362 -2.83887,-1.68179 -0.78515,-1.2148 -0.52457,-2.27894 0.79663,-3.25322 0.83771,-0.61775 1.91471,-0.59989 2.01735,0.0334 0.0566,0.34941 -0.0285,0.40942 -0.58044,0.40942 -0.80837,0 -1.66608,0.7077 -1.66608,1.37468 0,1.20875 2.79323,2.50151 4.52298,2.09332 2.012487,-0.47492 2.199847,-2.1436 0.32729,-2.915 -0.91213,-0.37574 -1.05943,-0.60345 -0.70662,-1.0923 0.59524,-0.82476 2.708297,1.1925 2.708297,2.58552 0,0.82521 -0.57618,1.76914 -1.351707,2.21448 -0.71229,0.40902 -2.10268,0.50868 -3.22883,0.23144 z m -5.72051,-0.56703 c -0.13194,-0.30133 0.23881,-0.83166 0.58143,-0.83166 0.2881,0 0.10956,0.95981 -0.19484,1.04741 -0.14268,0.0411 -0.31665,-0.056 -0.38659,-0.21575 z m -3.06244,-0.59399 c -0.248157,-0.21748 -0.13407,-0.60161 0.17867,-0.60161 0.1713,0 0.31146,0.118 0.31146,0.26221 0,0.30401 -0.29636,0.50922 -0.49013,0.3394 z m 16.053547,-1.06624 c -0.18751,-0.19801 -0.19956,-0.33504 -0.0416,-0.47345 0.26611,-0.23322 0.67372,-0.051 0.67372,0.3012 0,0.38886 -0.33939,0.48135 -0.6321,0.17225 z m -34.363819,-0.34595 c -0.67319,-0.58997 -0.661834,-1.36857 0.03047,-2.08962 0.624103,-0.65001 0.532857,-1.10308 -0.222157,-1.10308 -0.710647,0 -1.356143,0.60629 -1.356143,1.27377 0,0.66166 -0.35691,0.72206 -0.537641,0.091 -0.199131,-0.69532 0.07636,-1.36083 0.840568,-2.03056 1.172087,-1.0272 2.549059,-0.71532 3.478998,0.78797 0.872455,1.41036 1.0301,3.15324 0.285216,3.15324 -0.344861,0 -0.537347,-0.39413 -0.537347,-1.10028 0,-0.90206 -1.183116,-1.13813 -1.674152,-0.33405 -0.295415,0.48375 0.116541,1.1239 0.63115,0.98076 0.488282,-0.13582 0.742272,0.20435 0.41255,0.55253 -0.362066,0.38233 -0.770627,0.32741 -1.351517,-0.18167 z m 52.562259,0.15648 c -0.12866,-0.29385 0.4545,-1.56846 0.95294,-2.08281 0.63709,-0.65743 1.79824,-1.26637 2.41475,-1.26637 0.99499,0 1.4224,0.67963 1.12506,1.78897 -0.12524,0.46725 -0.2829,1.07474 -0.35034,1.34997 -0.0674,0.27522 -0.20877,0.50041 -0.31405,0.50041 -0.40261,0 -0.46852,-0.44201 -0.2079,-1.39412 0.23992,-0.87645 0.23178,-1.02124 -0.0724,-1.28783 -0.31854,-0.27915 -0.39429,-0.2788 -1.07353,0.005 -0.84017,0.35113 -0.93484,0.69246 -0.26363,0.95054 0.60655,0.23321 0.69275,0.82638 0.1979,1.36195 -0.26922,0.29138 -0.50979,0.38573 -0.76482,0.29996 -0.35513,-0.11943 -0.35545,-0.1412 -0.007,-0.47848 0.40321,-0.39046 0.29406,-0.91282 -0.19073,-0.91282 -0.36548,0 -0.74054,0.54691 -0.74054,1.07984 0,0.44232 -0.52165,0.5057 -0.70554,0.0857 z m -14.23244,-0.0674 c -0.35106,-0.19015 -0.1338,-0.73423 0.2932,-0.73423 0.17632,0 0.31797,0.15734 0.31797,0.3532 0,0.43336 -0.23921,0.5825 -0.61117,0.38103 z m 0.40353,-0.37029 c 0,-0.10008 -0.0412,-0.18197 -0.0916,-0.18197 -0.0504,0 -0.14931,0.0819 -0.21989,0.18197 -0.0706,0.10008 -0.0294,0.18197 0.0916,0.18197 0.12094,0 0.21989,-0.0819 0.21989,-0.18197 z M 90.682123,182.2009 c -0.2199,-0.20851 -0.21281,-0.25386 0.0397,-0.25386 0.35269,0 0.6246,0.29723 0.38719,0.42325 -0.0875,0.0464 -0.27959,-0.0298 -0.42685,-0.16939 z m -6.272767,-0.98172 c -0.150681,-0.24675 -0.153033,-0.36394 -0.0073,-0.36394 0.118217,0 0.21494,0.0867 0.21494,0.19271 0,0.10599 0.09343,0.1421 0.207635,0.0802 0.114199,-0.0618 0.207635,0.0152 0.207635,0.17123 0,0.39909 -0.358385,0.35292 -0.622905,-0.0802 z m 4.064067,0.06 c -0.0732,-0.16715 -0.0239,-0.363 0.10943,-0.43524 0.16638,-0.0901 0.0234,-0.37034 -0.45566,-0.89271 -0.603064,-0.65767 -0.698763,-0.89961 -0.702642,-1.77642 -0.0029,-0.65213 0.08831,-1.04299 0.255055,-1.09316 0.169987,-0.0511 0.259547,0.11142 0.259547,0.47113 0,0.76521 0.32554,1.43612 1.04553,2.15479 0.75016,0.74876 0.76497,0.92489 0.0965,1.14763 -0.2855,0.0951 -0.51909,0.22469 -0.51909,0.28792 0,0.0632 0.1354,0.0694 0.30088,0.0138 0.2011,-0.0676 0.26259,-0.0137 0.18542,0.1625 -0.15401,0.35172 -0.4112,0.33373 -0.57493,-0.0402 z m 14.830707,-0.50489 c 0,-0.0445 0.46718,-0.48392 1.03818,-0.9765 0.5838,-0.50363 1.03817,-1.06082 1.03817,-1.27311 0,-0.44541 0.36691,-0.69612 0.65249,-0.44584 0.5666,0.49656 -1.26242,2.77636 -2.2274,2.77636 -0.27579,0 -0.50144,-0.0364 -0.50144,-0.0809 z m 2.35907,-0.19204 c -0.16417,-0.37493 0.0639,-0.83239 0.38632,-0.77505 0.37602,0.0669 0.56372,0.55111 0.31805,0.82054 -0.27819,0.3051 -0.55879,0.28698 -0.70437,-0.0455 z m -19.38513,-0.74121 c 0,-0.33931 0.09532,-0.45206 0.346155,-0.40943 0.190386,0.0324 0.38938,0.17259 0.442208,0.31163 0.0583,0.15342 0.0038,0.20284 -0.138521,0.12573 -0.136024,-0.0737 -0.234572,-0.008 -0.234572,0.15664 0,0.15603 -0.09344,0.28369 -0.207635,0.28369 -0.114199,0 -0.207635,-0.21072 -0.207635,-0.46826 z m 14.61512,-0.0526 c -1.505597,-0.82264 -2.059857,-2.29832 -1.718087,-4.57425 0.22981,-1.53029 1.018937,-3.15034 1.734787,-3.56139 1.48406,-0.85219 3.09704,-0.66251 4.03707,0.47474 0.73898,0.89403 0.92962,1.94578 0.64571,3.56233 -0.53374,3.03903 -2.88523,5.08985 -4.69948,4.09857 z m 3.45961,-2.36173 c 0.55188,-1.28737 0.75558,-3.37361 0.41713,-4.27234 -0.32631,-0.86651 -1.11307,-1.39756 -2.0705,-1.39756 -1.43276,0 -2.33536,0.9925 -2.842987,3.12611 -0.31458,1.32225 -0.24144,2.62265 0.13602,2.41821 0.108427,-0.0587 0.197147,-0.40374 0.197147,-0.76669 0,-1.39511 1.71558,-2.01689 2.84175,-1.02994 0.51662,0.45276 0.5336,0.53251 0.41068,1.92941 -0.11044,1.25514 -0.0868,1.42701 0.17055,1.23983 0.16432,-0.11951 0.49741,-0.68068 0.74021,-1.24703 z m -2.43002,-1.63589 c 0.18924,-0.18327 0.28488,-0.3851 0.21251,-0.44852 -0.20567,-0.18025 -0.90751,0.21817 -0.90751,0.51518 0,0.362 0.28008,0.33514 0.695,-0.0667 z m -11.697857,3.4974 c -1.90552,-1.50871 -1.94684,-5.05104 -0.0812,-6.96118 1.80694,-1.85004 4.51084,-1.70972 5.51836,0.28639 0.35318,0.69972 0.40469,1.06176 0.29636,2.0832 -0.2305,2.17356 -1.4683,4.35935 -2.81402,4.96923 -1.06347,0.48195 -1.98426,0.36285 -2.91951,-0.37764 z m 0.37274,-3.66043 c 0.32857,-0.51632 0.88769,-0.77753 1.66429,-0.77753 0.88856,0 1.3948,0.73117 1.35987,1.96411 -0.0182,0.64393 0.0506,0.94106 0.20763,0.89622 0.4215,-0.12037 1.00543,-2.00662 1.03584,-3.34605 0.0337,-1.48213 -0.36428,-2.1769 -1.42419,-2.48652 -1.2008,-0.35079 -2.93236,0.89568 -3.5979,2.58996 -0.31384,0.79895 -0.3117,2.39969 0.004,3.05445 0.2398,0.4972 0.25066,0.48284 0.36977,-0.48857 0.0675,-0.55045 0.23877,-1.18318 0.38061,-1.40607 z m 1.5684,0.0955 c 0.1224,-0.17035 0.1513,-0.37216 0.0642,-0.44849 -0.22152,-0.19413 -0.8507,0.18689 -0.93591,0.56677 -0.0911,0.4061 0.55822,0.31799 0.8717,-0.11828 z m 17.938117,3.91953 c 0.14274,-0.0505 0.25954,-0.17561 0.25954,-0.27806 0,-0.10245 -0.14796,-0.13651 -0.3288,-0.0757 -0.20874,0.0702 -0.29719,0.0275 -0.24224,-0.11701 0.14535,-0.38217 0.67069,-0.25329 0.74121,0.18184 0.0486,0.29963 -0.035,0.40558 -0.31146,0.39506 -0.21805,-0.008 -0.26806,-0.0532 -0.11825,-0.10614 z m 2.64734,-0.97129 c 0.0706,-0.10009 0.0294,-0.18197 -0.0916,-0.18197 -0.29534,0 -0.28088,-0.49139 0.0192,-0.65395 0.23853,-0.12919 0.79904,0.37833 0.79904,0.72351 0,0.10008 -0.13551,0.023 -0.30113,-0.17126 -0.29083,-0.34114 -0.2971,-0.33922 -0.18342,0.0562 0.0721,0.25091 0.0232,0.40942 -0.1264,0.40942 -0.13425,0 -0.18635,-0.0819 -0.11577,-0.18196 z m -5.95002,-0.49131 c -0.12708,-0.7838 0.0231,-1.1464 0.47486,-1.1464 0.35617,0 0.40333,0.10457 0.34814,0.77179 -0.0773,0.93403 -0.68728,1.2117 -0.823,0.37461 z m 1.81954,-0.16046 c -0.17127,-0.39114 -0.16084,-0.44004 0.0939,-0.44004 0.12094,0 0.16215,0.0819 0.0916,0.18197 -0.0706,0.10008 0.0228,0.18197 0.20763,0.18197 0.18478,0 0.27822,0.0819 0.20764,0.18196 -0.18942,0.2686 -0.45741,0.22137 -0.60069,-0.10586 z m -23.092044,-0.1078 c -0.249276,-0.35348 -0.169717,-1.74848 0.116988,-2.05123 0.425226,-0.44903 0.918793,-0.36371 0.73341,0.12678 -0.08511,0.22518 -0.198462,0.79838 -0.251892,1.27377 -0.09548,0.84949 -0.300849,1.07276 -0.598506,0.65068 z m -2.019391,-0.45355 c -0.279306,-0.24478 -0.127432,-0.60656 0.254631,-0.60656 0.394401,0 0.724798,0.41542 0.49239,0.6191 -0.165554,0.14509 -0.575002,0.13822 -0.747021,-0.0125 z m 80.904755,14.10306 c 0.96201,-0.44903 1.80316,-1.83506 1.80316,-2.97123 0,-1.58975 -1.47841,-4.6272 -2.91868,-5.99655 -0.94024,-0.89394 -0.97133,-1.02654 -0.39961,-1.70424 0.65078,-0.7714 0.89098,-2.54884 0.6295,-4.65806 -0.18971,-1.53026 -0.35116,-2.02274 -1.06647,-3.25307 -0.83183,-1.43074 -0.86564,-1.96384 -0.10839,-1.70918 0.41114,0.13827 1.23967,1.57933 1.69195,2.9428 0.43796,1.32028 0.45213,3.87455 0.0311,5.59688 -0.16516,0.67555 -0.24162,1.23696 -0.16991,1.24756 0.0717,0.0106 0.38145,0.005 0.68833,-0.0125 0.7356,-0.0419 1.19825,0.19037 3.17947,1.59638 2.73284,1.93941 4.0187,2.27261 5.10303,1.32233 0.49896,-0.43729 0.60693,-0.68433 0.60693,-1.38877 0,-1.07714 -0.53361,-1.86207 -1.8278,-2.68864 -1.30375,-0.83269 -2.69916,-1.42498 -4.76245,-2.02145 -3.14402,-0.9089 -2.63307,-1.22061 2.27748,-1.3894 2.08653,-0.0717 4.30597,-0.2317 4.9321,-0.35551 1.95436,-0.38646 3.00738,-1.72756 2.28511,-2.91029 -0.34756,-0.56916 -1.56511,-0.72179 -5.76609,-0.72286 -4.27532,-0.001 -5.18405,-0.14557 -5.6431,-0.89728 -0.34016,-0.55702 0.51343,-1.17366 2.16798,-1.56616 1.22427,-0.29043 1.71797,-0.62538 1.46031,-0.99075 -0.0562,-0.0797 0.0189,-0.23297 0.1668,-0.34058 0.19815,-0.14413 0.53934,-0.0737 1.29543,0.26743 0.87555,0.39502 1.22085,0.45032 2.34911,0.37621 1.95434,-0.12839 2.99551,-0.97981 2.65446,-2.17069 -0.24284,-0.84793 -1.3468,-1.13974 -4.28859,-1.13364 -2.6409,0.005 -4.91896,0.33353 -8.40922,1.21095 -2.52928,0.63584 -5.8303,2.0641 -6.36127,2.75235 -0.0727,0.0943 0.0973,0.55905 0.37776,1.03285 0.47924,0.80952 0.49565,0.93078 0.27221,2.01069 -0.27312,1.31998 -1.52195,3.63286 -1.96155,3.63286 -0.56932,0 -0.52241,-0.33782 0.24302,-1.75037 0.95982,-1.77125 1.00708,-2.8151 0.19185,-4.23754 -0.30158,-0.52621 -0.54833,-1.12284 -0.54833,-1.32584 0,-0.20301 0.32895,-0.95372 0.73101,-1.66825 1.41787,-2.51983 1.17984,-4.82406 -0.65112,-6.30315 -1.14997,-0.92897 -2.12398,-1.30681 -2.98132,-1.15654 -1.40004,0.24539 -1.60153,1.48618 -0.63246,3.8947 1.16273,2.88984 0.84551,4.10644 -1.62845,6.24537 -1.4834,1.28252 -2.19246,2.36798 -2.63211,4.02937 -0.75531,2.85421 -1.33808,3.18699 -7.77817,4.44153 -2.69948,0.52586 -5.45993,0.93695 -8.3054,1.23684 l -1.34962,0.14224 -0.15917,1.36475 c -0.0875,0.75061 -0.13426,2.06078 -0.10382,2.91147 l 0.0554,1.54673 0.83054,-0.0558 c 0.4568,-0.0307 1.99849,-0.21631 3.42598,-0.41255 3.90075,-0.53624 14.22041,-3.02196 14.63826,-3.52596 0.1142,-0.13774 0.32245,-0.40083 0.46277,-0.58464 0.29502,-0.38645 0.33082,-0.35702 1.58611,1.3035 1.25098,1.65483 3.09978,2.26176 6.91781,2.27098 1.77223,0.004 2.42631,0.19347 3.35387,0.97009 0.96564,0.8085 1.4064,1.66082 1.56194,3.02042 0.14937,1.30566 0.63209,2.17917 1.39003,2.51533 0.62132,0.27557 0.54522,0.27425 1.09237,0.0189 z M 34.017853,189.40278 c 0.717548,-0.49466 1.707947,-2.04703 2.332235,-3.65561 0.952973,-2.4555 1.260367,-2.63244 4.767384,-2.74427 2.906343,-0.0927 3.766089,-0.35883 5.398509,-1.67124 0.570996,-0.45906 1.107433,-0.83594 1.192084,-0.83751 0.08465,-0.002 1.439466,0.59786 3.010706,1.33206 4.549956,2.12609 8.780913,3.75348 12.511822,4.81253 2.593304,0.73613 5.116436,1.25713 5.301725,1.09475 0.05399,-0.0473 -0.449864,-0.57024 -1.119677,-1.16206 -1.391186,-1.22919 -2.016669,-2.4475 -2.263962,-4.40971 l -0.153189,-1.2155 -0.934358,-0.40904 c -0.987034,-0.43209 -3.833977,-1.38805 -8.04196,-2.70036 -3.005154,-0.9372 -3.871522,-1.31394 -4.787744,-2.08196 -0.66205,-0.55495 -0.67885,-0.60519 -0.546136,-1.63322 0.150486,-1.16568 -0.146312,-2.58623 -0.766333,-3.66786 -0.210039,-0.36642 -0.466067,-0.99454 -0.568948,-1.39583 -0.159036,-0.62032 -0.114007,-0.83696 0.300609,-1.4463 0.268217,-0.39417 1.027465,-1.07383 1.687221,-1.51034 2.746466,-1.81714 3.466953,-3.32436 2.12695,-4.44946 -0.543327,-0.45619 -0.823615,-0.53844 -2.040065,-0.59868 -2.437225,-0.12069 -4.276136,0.87537 -5.277034,2.85835 -0.353637,0.70063 -0.392492,1.04495 -0.273631,2.42483 l 0.138531,1.60824 -0.677155,0.31393 c -1.807936,0.83815 -2.700469,2.36415 -2.688287,4.59625 0.0067,1.22571 -0.362281,1.47218 -0.804192,0.53719 -0.350979,-0.74259 0.03705,-2.48224 0.848811,-3.80551 0.333229,-0.54321 0.60587,-1.05408 0.60587,-1.13527 0,-0.22788 -3.015873,-1.5032 -4.983238,-2.10725 -3.030195,-0.9304 -5.136459,-1.22698 -8.720668,-1.22797 -2.871577,-7.3e-4 -3.296414,0.0393 -3.942937,0.37216 -0.398527,0.20517 -0.865706,0.59413 -1.038174,0.86434 -0.279456,0.43784 -0.279527,0.54465 -6.65e-4,0.98157 0.535813,0.83949 1.985144,1.33115 5.337209,1.81057 4.130272,0.59071 4.786525,0.85825 4.495723,1.8328 -0.179719,0.6023 -0.984926,0.77925 -3.563214,0.78308 -3.396864,0.005 -5.080557,0.24514 -6.669273,0.95106 -1.611603,0.7161 -2.239835,1.5347 -1.877282,2.44615 0.283834,0.71356 0.950878,0.96663 2.544682,0.96543 1.791717,-0.001 6.097754,-0.6649 7.114784,-1.09638 0.969207,-0.41118 1.537753,-0.45894 1.558798,-0.13093 0.02496,0.38903 0.370668,-0.47431 0.386083,-0.96418 0.01927,-0.61246 1.579951,-4.84011 1.988502,-5.38656 0.212604,-0.28435 0.519227,-0.42754 0.915559,-0.42754 0.8196,0 0.935257,0.42707 0.295975,1.09289 -1.038149,1.08125 -1.935215,4.33906 -1.938058,7.03829 -0.0017,1.62783 -0.236621,2.42292 -0.715846,2.42292 -0.509036,0 -0.739167,-0.62825 -0.739167,-2.01788 0,-1.28814 -0.0079,-1.30768 -0.402168,-0.99497 -0.221193,0.17543 -1.859617,0.7538 -3.640942,1.28527 -1.781326,0.53147 -3.552935,1.17631 -3.93691,1.43298 -0.966157,0.64583 -1.649127,1.91092 -1.373997,2.54511 0.24564,0.56621 1.352713,1.20522 2.089695,1.20618 0.287093,3.7e-4 1.780785,-0.6257 3.319317,-1.39127 3.3098,-1.64696 4.131974,-1.8175 5.148465,-1.06791 1.018485,0.75106 0.897519,1.1746 -0.929121,3.2532 -1.843076,2.0973 -2.546315,3.42373 -2.553395,4.81615 -0.0042,0.83177 0.0812,1.0448 0.602005,1.50123 0.714541,0.62621 1.215766,0.66815 1.948472,0.16306 z m 86.974907,-13.51754 c 0.34963,-1.01958 0.75935,-1.96957 0.9105,-2.1111 0.51325,-0.48058 0.85202,0.0829 1.1101,1.84654 0.13477,0.921 0.29534,1.71811 0.35681,1.77135 0.22746,0.19701 1.12388,-1.02897 1.52774,-2.08939 1.02862,-2.70084 1.32951,-6.06317 0.70923,-7.92544 -0.70557,-2.11835 -1.85182,-3.2955 -4.13495,-4.24639 -2.03658,-0.84821 -3.37803,-1.08941 -5.32644,-0.95773 -1.50527,0.10173 -1.62933,0.0838 -1.62933,-0.23488 0,-1.02062 4.01021,-2.60968 6.59241,-2.61227 1.74021,-0.002 1.88892,-0.18515 0.79241,-0.97725 -1.11793,-0.80758 -2.84311,-1.4962 -4.5722,-1.82504 -1.37237,-0.261 -1.79884,-0.27077 -3.14779,-0.0721 -2.8381,0.41793 -5.41643,1.3864 -7.15658,2.68814 -1.20418,0.90081 -1.85182,1.02425 -1.85182,0.35294 0,-0.61139 1.69258,-3.50541 2.58191,-4.41464 0.40714,-0.41623 0.74025,-0.81566 0.74025,-0.8876 0,-0.22558 -1.50667,0.0682 -2.90973,0.56737 -1.64869,0.58656 -2.9197,1.21814 -4.14986,2.0621 -1.743197,1.19594 -2.876727,2.44292 -1.920627,2.11285 0.735297,-0.25384 2.479447,-0.32029 2.924737,-0.11144 0.48726,0.22854 0.60949,0.88581 0.18979,1.02056 -0.14275,0.0458 -0.6261,-0.0289 -1.07411,-0.16595 -0.88762,-0.27163 -1.787707,-0.14446 -2.396827,0.33864 -0.1931,0.15315 -0.55598,0.27846 -0.80638,0.27846 -1.77578,0 -0.14011,-3.7502 2.628877,-6.02737 2.00081,-1.64544 7.55978,-3.90682 10.48944,-4.2671 0.55153,-0.0678 1.0473,-0.22501 1.10172,-0.3493 0.15145,-0.34586 -0.76153,-2.65349 -1.09405,-2.76532 -0.4433,-0.14907 -2.92679,0.44782 -4.33261,1.04133 -1.68465,0.71121 -4.67679,2.69907 -6.38584,4.24247 -1.637297,1.47862 -2.531237,2.61286 -3.953157,5.01583 -1.50468,2.54282 -1.57329,2.62756 -1.92199,2.37394 -0.2274,-0.1654 -0.28317,-0.67427 -0.24565,-2.24128 0.0575,-2.40047 -0.24753,-3.17355 -1.84118,-4.66668 -1.58835,-1.48816 -5.362796,-3.45651 -6.62808,-3.45651 -0.411528,0 -2.159706,1.42819 -2.654641,2.16874 -0.375091,0.56123 -0.374964,0.56188 0.143154,0.73452 0.285219,0.095 1.52867,0.34146 2.763228,0.54761 1.234556,0.20615 2.524959,0.46773 2.867549,0.58127 0.95876,0.31777 2.86505,1.41993 3.26917,1.89014 0.55463,0.64533 0.98735,2.37025 0.98735,3.93577 0,1.20888 -0.0575,1.4381 -0.40162,1.59948 -0.22089,0.1036 -0.55715,0.18836 -0.74725,0.18836 -0.7313,0 -1.78732,0.62311 -2.50194,1.47627 -0.80875,0.96554 -1.33243,1.14634 -1.33243,0.46001 0,-0.55309 1.43165,-1.98136 2.38234,-2.37673 0.4027,-0.16747 0.73219,-0.35305 0.73219,-0.41239 0,-0.26571 -2.44208,0.15005 -3.46986,0.59074 -0.990741,0.4248 -1.175959,0.45383 -1.436817,0.22522 -0.397495,-0.34835 -0.166459,-0.82287 0.561206,-1.15264 0.782321,-0.35454 3.063161,-0.81296 3.430391,-0.68947 0.16069,0.054 0.29217,0.0183 0.29217,-0.0794 0,-0.29512 -2.37848,-1.10389 -4.195087,-1.42648 -1.650496,-0.29309 -4.996828,-0.27354 -5.33057,0.0311 -0.07115,0.065 0.104223,0.25163 0.389721,0.41481 1.024825,0.58578 1.692042,1.2882 1.62379,1.70946 -0.05647,0.34852 -0.20783,0.41739 -1.000886,0.45543 -3.567006,0.17111 -6.094079,0.86144 -8.342825,2.27906 -1.415256,0.89218 -3.224334,2.42987 -3.044325,2.58763 0.06088,0.0533 0.540754,-0.0697 1.06639,-0.27349 0.525636,-0.20377 1.307318,-0.389 1.737068,-0.41163 1.20997,-0.0637 1.153723,0.4218 -0.19212,1.65836 -1.645783,1.51213 -3.362569,4.97146 -4.099536,8.26058 -0.271421,1.21136 -0.184993,1.41286 0.605988,1.41286 0.76939,0 2.262926,0.96788 2.614016,1.69399 0.311079,0.64336 0.405987,0.52692 0.610181,-0.7486 0.245971,-1.53648 1.82971,-3.85686 2.632444,-3.85686 0.579147,0 0.669849,0.38388 0.328891,1.392 -0.376006,1.11175 -0.05983,3.52111 0.462069,3.52111 0.08118,0 0.46037,-0.66392 0.842655,-1.47538 1.50933,-3.20378 5.216921,-7.22801 8.248327,-8.95276 1.900159,-1.08111 4.391119,-1.95575 5.926259,-2.08085 1.11503,-0.0909 1.1939,-0.0717 1.1939,0.2909 0,0.2135 -0.56061,1.05082 -1.24581,1.8607 -0.68519,0.80989 -1.24581,1.54731 -1.24581,1.63873 0,0.0914 0.74273,0.16621 1.65051,0.16621 h 1.65052 l 0.58156,-0.68222 c 0.31986,-0.37521 0.65089,-0.76417 0.73563,-0.86434 0.98309,-1.16212 2.12558,-2.30861 2.45412,-2.4627 0.608,-0.28517 0.68961,0.0985 0.52723,2.47885 l -0.14165,2.07631 h 0.82418 c 1.205817,0 1.400497,-0.27624 1.562887,-2.21774 0.21666,-2.59021 0.29955,-2.87734 0.83067,-2.87734 1.33451,0 3.53205,1.96941 4.96398,4.44866 0.43655,0.75586 0.87598,1.37429 0.9765,1.37429 0.27123,0 0.60498,-1.1893 0.7549,-2.6901 0.0728,-0.72894 0.2125,-1.36873 0.3104,-1.42175 0.30388,-0.16459 1.34426,0.60936 2.43717,1.81305 1.23116,1.35595 2.40178,3.40678 2.7261,4.77589 0.12689,0.53566 0.31459,1.01937 0.41711,1.0749 0.10252,0.0555 0.61279,-0.70048 1.13393,-1.68002 1.38596,-2.60509 1.44249,-2.69083 1.77421,-2.69083 0.37088,0 1.55185,2.09805 1.96673,3.494 0.26673,0.89744 0.42861,1.83204 0.86004,4.9654 l 0.11246,0.81677 0.30474,-0.50972 c 0.16761,-0.28034 0.5908,-1.34391 0.94043,-2.36349 z"
         style="fill:#000000;stroke-width:0.19437782" />
      <path
         inkscape:connector-curvature="0"
         id="path4496-3"
         d="m 108.37127,209.49644 c -0.84963,-0.14145 -1.97086,-0.3963 -2.49162,-0.56635 -1.89555,-0.61892 -5.75259,-2.44849 -6.956237,-3.29964 -1.345284,-0.9513 -3.336409,-3.33926 -4.872199,-5.84323 -0.503303,-0.82059 -1.022355,-1.57 -1.153448,-1.66535 -0.154308,-0.11223 -0.600401,-0.0697 -1.265074,0.12071 -0.76392,0.21879 -1.903618,0.29847 -4.452691,0.3113 -2.961021,0.0149 -3.532547,-0.0292 -4.211233,-0.32469 l -0.785257,-0.34194 0.02731,-3.65408 c 0.03147,-4.20975 0.102304,-4.05154 -2.046001,-4.56957 -4.696487,-1.1325 -8.185409,-2.30631 -11.795702,-3.96856 -2.066544,-0.95148 -3.981976,-1.79093 -4.256516,-1.86545 -0.274542,-0.0745 -0.836589,-0.28462 -1.248989,-0.4669 l -0.749822,-0.3314 -0.568388,0.51993 c -0.312611,0.28596 -1.143139,0.75262 -1.845614,1.03702 -1.160683,0.4699 -1.495115,0.51816 -3.66503,0.52891 -1.767251,0.009 -2.551593,0.0875 -3.018049,0.30303 -0.685895,0.31692 -0.768869,0.43984 -1.752896,2.59684 -1.10929,2.43158 -2.555289,4.09426 -3.560695,4.09426 -0.698474,0 -1.574079,-0.50777 -2.057375,-1.19309 -0.385305,-0.54636 -0.444435,-0.83189 -0.353761,-1.70825 0.142346,-1.37575 0.679753,-2.40231 2.247764,-4.29368 0.971376,-1.1717 1.291005,-1.7098 1.308481,-2.20284 0.0498,-1.40488 -1.032276,-1.29029 -4.716846,0.49952 -2.893834,1.4057 -3.253709,1.46134 -4.644228,0.71798 -1.633565,-0.87329 -1.683697,-2.13068 -0.144756,-3.63075 0.711431,-0.69347 1.250721,-1.00817 2.370001,-1.383 2.336303,-0.78238 1.868934,-0.99019 -1.415311,-0.62929 -2.057887,0.22614 -3.139731,0.0283 -3.789129,-0.69286 -0.623452,-0.69237 -0.467168,-1.8662 0.348751,-2.61945 1.369393,-1.2642 3.504717,-1.7843 7.342857,-1.78851 2.343969,-0.003 3.737429,-0.23504 3.737429,-0.62352 0,-0.42621 -0.504405,-0.63066 -2.035146,-0.82489 -0.822055,-0.10431 -2.155264,-0.27327 -2.962684,-0.37546 -1.677808,-0.21235 -3.672563,-1.01617 -4.324646,-1.74268 -0.892152,-0.99397 -0.366058,-2.08373 1.359326,-2.81573 1.928624,-0.81821 6.812209,-0.6202 11.433195,0.46358 1.93055,0.45279 3.206816,0.92408 5.423904,2.00292 2.327342,1.13248 2.941242,0.83371 2.941242,-1.43143 0,-1.64406 0.492352,-2.90764 1.509921,-3.87511 1.272026,-1.20939 2.096061,-1.5141 4.09462,-1.5141 1.992178,0 2.96255,0.3037 3.413789,1.06843 0.724951,1.2286 0.257456,2.50742 -1.345266,3.67994 -2.180164,1.59496 -3.067216,2.37328 -3.188827,2.79792 -0.07725,0.26972 0.103182,0.93483 0.479007,1.76575 0.845571,1.86949 1.13629,3.23966 0.868035,4.0911 -0.210712,0.6688 -0.194324,0.70079 0.76604,1.49536 0.838046,0.69337 1.436179,0.95656 4.095879,1.80225 6.661206,2.11804 8.910863,2.77962 9.163278,2.69474 0.144293,-0.0485 0.370433,-0.44 0.502534,-0.86994 0.132098,-0.42994 0.4118,-1.07652 0.621554,-1.43685 0.36336,-0.62419 1.55262,-1.68355 2.054635,-1.8302 0.129579,-0.0379 0.557839,-1.23896 0.951687,-2.66912 0.802111,-2.91263 1.948448,-5.49402 3.079941,-6.93558 0.415941,-0.52992 0.756256,-1.03619 0.756256,-1.12504 0,-0.32875 -0.984573,-0.14625 -1.879973,0.34847 -0.507707,0.28052 -1.054479,0.57985 -1.215054,0.66518 -0.236339,0.1256 -0.266327,0.0429 -0.157422,-0.43435 0.192826,-0.84495 0.802759,-1.51602 2.598079,-2.8585 2.122379,-1.58705 4.318402,-2.51541 7.19487,-3.04159 1.562669,-0.28585 2.302502,-0.50189 2.342621,-0.68407 0.03442,-0.1563 -0.459097,-0.5599 -1.194978,-0.97725 -0.689488,-0.39105 -1.179774,-0.77571 -1.089517,-0.85481 0.59863,-0.52462 5.657776,-0.67924 7.999124,-0.24446 0.7781,0.14449 2.15916,0.61084 3.07385,1.03796 1.87178,0.87403 2.04486,0.83075 2.05055,-0.51273 0.002,-0.55214 -0.17669,-0.98525 -0.67164,-1.6249 -0.8717,-1.12656 -2.43398,-1.88371 -5.20801,-2.52405 -3.041544,-0.70209 -4.767937,-1.20233 -5.102903,-1.4786 -0.248771,-0.20519 -0.115432,-0.43097 0.89148,-1.50957 1.405133,-1.50518 2.398233,-2.20926 3.116133,-2.20926 0.76353,0 3.82862,1.43719 5.39563,2.52996 1.52205,1.0614 3.10404,2.53809 3.6131,3.37257 0.18697,0.30652 0.44318,1.17144 0.56932,1.92206 l 0.22936,1.36475 0.37827,-0.63688 c 0.64682,-1.08903 4.00146,-4.64758 5.66391,-6.0082 3.07069,-2.51318 6.32998,-4.04894 9.42165,-4.43944 l 0.95562,-0.1207 0.5765,1.7813 c 0.31708,0.97972 0.61516,1.86992 0.6624,1.97823 0.0517,0.11843 -0.51775,0.29057 -1.4283,0.43181 -2.52917,0.39232 -4.07453,0.88853 -7.30259,2.34484 -3.50881,1.58296 -4.64039,2.35868 -5.40673,3.70642 -0.77934,1.37062 -0.40877,1.45327 1.26253,0.28158 2.38859,-1.67454 4.23715,-2.44468 7.7602,-3.23299 2.2981,-0.51422 2.51069,-0.30681 0.97749,0.95362 -1.62538,1.3362 -3.22171,3.77926 -2.46942,3.77926 0.0973,0 0.49441,-0.20399 0.88245,-0.45332 3.35113,-2.15321 8.25492,-2.71571 11.9178,-1.36705 1.33751,0.49246 1.93956,0.85452 3.09066,1.85862 0.78627,0.68587 1.36984,1.29938 1.29684,1.36337 -0.073,0.064 -0.64314,0.0982 -1.26695,0.0761 -0.6238,-0.0221 -1.70916,0.0512 -2.41189,0.16284 -1.50929,0.23985 -3.66887,1.03282 -3.39272,1.24575 0.10585,0.0816 0.84649,0.2492 1.64589,0.3724 3.20734,0.49432 6.42716,2.60196 7.35115,4.81198 1.02265,2.44595 0.99344,5.47799 -0.0813,8.44411 -0.52669,1.45352 -0.47823,1.67278 0.37108,1.67911 0.87248,0.007 2.63705,1.27981 2.63705,1.90287 0,0.12894 0.19364,0.4502 0.43033,0.7139 0.56075,0.62476 1.03168,0.61934 5.54089,-0.0638 5.54879,-0.84069 9.34072,-1.75837 10.25194,-2.48108 0.21796,-0.17287 0.63955,-1.01657 0.93686,-1.87488 0.7508,-2.16763 1.25874,-2.97344 2.96497,-4.70387 0.81507,-0.82662 1.57248,-1.71162 1.68314,-1.96667 0.33046,-0.76174 0.22987,-2.14247 -0.25271,-3.46881 -0.27239,-0.74868 -0.45918,-1.74435 -0.46718,-2.49023 -0.0126,-1.17993 0.021,-1.26965 0.66478,-1.77418 1.88536,-1.47751 5.69187,0.51597 6.14738,3.21941 0.20713,1.22937 -0.18626,3.24876 -0.87478,4.49045 -0.7079,1.27664 -0.58198,1.64074 0.36343,1.05077 1.46886,-0.91663 4.3083,-1.8836 7.86798,-2.67945 3.23599,-0.72348 4.02671,-0.83344 6.62563,-0.92142 3.28228,-0.11111 3.87532,0.001 4.73559,0.89722 0.98249,1.0233 0.49042,2.48041 -1.03771,3.07281 -0.57444,0.22269 -1.95107,0.44118 -3.8042,0.60378 -3.01006,0.26412 -4.81733,0.73742 -4.81733,1.26161 0,0.22156 0.72448,0.27692 4.41225,0.33713 4.78793,0.0782 5.46318,0.19917 6.64432,1.19064 1.30234,1.09322 0.10863,3.0667 -2.23208,3.69013 -0.45681,0.12167 -2.25633,0.27301 -3.99895,0.33631 -1.86502,0.0678 -3.17608,0.18996 -3.18707,0.29708 -0.0103,0.10008 0.79303,0.46856 1.78513,0.81885 2.83347,1.00043 5.13097,3.06714 5.13097,4.61555 0,1.35444 -1.16145,2.40314 -2.62794,2.37283 -1.04961,-0.0217 -1.988,-0.4399 -4.41729,-1.96864 -2.01366,-1.26718 -3.17042,-1.67641 -3.17042,-1.12162 0,0.16734 0.36823,0.89408 0.81829,1.61495 1.83542,2.93987 2.43524,4.94615 1.86902,6.25137 -0.34628,0.79817 -1.66364,2.20814 -2.26815,2.42758 -0.66584,0.24171 -1.37404,0.0399 -2.00239,-0.57067 -0.64426,-0.62601 -0.8505,-1.04824 -1.00937,-2.06644 -0.20481,-1.31275 -0.99579,-2.66487 -1.80355,-3.08303 -0.52867,-0.27369 -1.25108,-0.37588 -3.29089,-0.46553 -3.07765,-0.13525 -3.92795,-0.416 -5.77445,-1.90657 -1.72488,-1.39239 -1.79642,-1.4118 -3.25468,-0.88309 -3.08752,1.11942 -11.98962,3.1304 -15.66496,3.53871 -2.59832,0.28866 -2.70494,0.38778 -3.30862,3.07576 -0.58721,2.61466 -1.25648,3.99992 -1.9326,4.00013 -1.19126,2.6e-4 -5.17135,0.40366 -6.35839,0.64427 -0.72147,0.14624 -1.76809,0.43793 -2.32583,0.6482 -0.98205,0.37024 -1.03434,0.42912 -1.6561,1.86493 -2.01709,4.65793 -7.69113,9.00275 -13.70491,10.49434 -2.03646,0.5051 -6.2938,0.64328 -8.50052,0.27589 z m 6.00891,-0.9101 c 2.44878,-0.32747 4.45819,-0.92242 6.85332,-2.02915 4.70811,-2.17551 8.32191,-6.68827 9.64732,-12.04714 0.16611,-0.67162 0.58668,-0.91208 1.03057,-0.58923 0.25071,0.18235 0.24701,0.32885 -0.026,1.03104 -0.17502,0.45017 -0.27534,0.85607 -0.22293,0.902 0.0524,0.0459 0.46002,-0.0511 0.9058,-0.21555 1.06579,-0.39326 4.14946,-0.79462 6.11743,-0.79623 0.9347,-8e-4 1.7062,-0.0933 1.9075,-0.22875 0.71543,-0.48143 1.79343,-4.2781 1.95043,-6.86926 0.0912,-1.5056 0.0852,-1.53053 -0.22552,-0.93781 -0.46578,0.88845 -1.48306,1.95377 -2.27551,2.38299 -1.37703,0.74584 -3.17657,0.32184 -3.72219,-0.87702 l -0.28811,-0.63304 -0.38523,0.53285 c -1.0721,1.48297 -2.93174,3.43905 -4.4157,4.64471 -1.46288,1.18853 -5.66254,3.65542 -8.16973,4.79892 -0.42126,0.19213 -0.71049,0.42795 -0.64273,0.52403 0.0678,0.0961 0.0215,0.11961 -0.10283,0.0523 -0.12432,-0.0673 -1.14319,0.20028 -2.26416,0.59471 -3.0429,1.07067 -4.77717,1.33707 -8.78626,1.34967 -3.00602,0.009 -3.75684,-0.052 -6.12522,-0.50088 -4.58174,-0.86847 -7.128686,-1.7808 -10.565306,-3.78456 -1.041038,-0.60699 -2.005481,-1.10523 -2.143207,-1.1072 -0.137727,-0.002 -0.21285,-0.0568 -0.166942,-0.12194 0.04591,-0.0651 -0.507841,-0.62215 -1.23055,-1.23789 -1.475695,-1.25729 -2.368344,-2.36747 -3.61586,-4.49703 -0.539215,-0.92046 -0.854379,-1.30538 -0.857128,-1.04684 -0.0024,0.2249 -0.316902,0.71621 -0.698926,1.09181 -0.565536,0.55602 -0.782616,1.02098 -1.168405,2.50257 -0.260604,1.00082 -0.839931,2.7508 -1.287391,3.88885 -0.447464,1.13805 -0.76794,2.10917 -0.712171,2.15805 0.258458,0.2265 3.376871,0.38925 5.627449,0.29369 1.786879,-0.0759 2.755162,-0.20516 3.423372,-0.45708 1.233702,-0.46511 1.773661,-0.32812 2.092024,0.53075 0.623802,1.68287 3.319385,5.36266 4.973851,6.78991 1.96277,1.6932 6.25898,3.4478 9.54007,3.89622 2.3691,0.32378 3.6753,0.32628 6.02887,0.0116 z m -9.59014,-8.22887 c 0.14988,-0.0526 0.32898,-0.0461 0.39797,0.0144 0.069,0.0605 -0.0536,0.10347 -0.27252,0.0956 -0.24188,-0.009 -0.29108,-0.0519 -0.12545,-0.10994 z m 9.79777,-1.2346 c 3.70776,-0.44218 9.04462,-2.29809 12.39699,-4.31111 2.71323,-1.62923 6.84362,-5.56589 8.42434,-8.02923 0.58032,-0.90434 0.99989,-0.80856 1.42505,0.32533 0.41797,1.11471 1.20151,1.90998 1.8818,1.90998 1.76184,0 4.11017,-3.87476 4.11017,-6.78179 0,-1.50614 -0.20016,-2.10174 -0.93614,-2.78565 -0.53404,-0.49624 -0.83006,-0.62272 -1.45749,-0.62272 -0.68546,0 -0.94855,0.14128 -2.03315,1.0918 -0.68519,0.6005 -1.26836,1.09181 -1.29592,1.09181 -0.0276,0 -0.11734,-0.94297 -0.19951,-2.09548 -0.0822,-1.15251 -0.21735,-2.13228 -0.30042,-2.17727 -0.083,-0.045 -0.35549,0.58779 -0.60543,1.40616 -0.54329,1.77893 -2.20562,4.94509 -2.50982,4.78033 -0.11733,-0.0635 -0.21333,-0.67524 -0.21333,-1.3593 0,-1.56797 -0.3657,-4.78341 -0.65287,-5.74051 -0.30887,-1.02937 -1.28029,-3.18442 -1.43544,-3.18442 -0.0715,0 -0.23644,0.30707 -0.3666,0.68237 -0.24289,0.70033 -2.11849,3.57907 -2.62231,4.02481 -0.4481,0.39645 -0.66672,0.1135 -0.80443,-1.04113 -0.23274,-1.95146 -1.17478,-3.90069 -2.85339,-5.90407 -1.01941,-1.21666 -1.44539,-1.4002 -1.43251,-0.61723 0.009,0.56814 -1.32402,5.03885 -1.50282,5.03885 -0.0819,0 -0.24966,-0.34801 -0.37292,-0.77336 -0.72874,-2.51487 -2.01882,-4.48935 -3.88632,-5.94806 -0.6389,-0.49905 -1.22616,-0.87242 -1.30502,-0.82971 -0.0789,0.0427 -0.20741,1.00151 -0.28566,2.13066 -0.0846,1.22115 -0.24566,2.1436 -0.39742,2.27661 -0.14033,0.12298 -1.07162,0.2786 -2.06954,0.34582 -2.08169,0.14023 -1.92849,0.32344 -1.5873,-1.89845 0.12491,-0.81343 0.19063,-1.57488 0.14604,-1.69212 -0.0446,-0.11724 -0.72322,0.58075 -1.50807,1.55108 -0.78483,0.97034 -1.60652,1.84846 -1.82597,1.95139 -0.42687,0.20021 -5.00532,0.15195 -5.24077,-0.0552 -0.19078,-0.16788 0.16623,-0.70686 1.69389,-2.55727 1.53704,-1.86178 1.44796,-1.94133 -1.1136,-0.99455 -5.121433,1.89293 -9.513257,6.24832 -11.68523,11.58828 -0.656756,1.61469 -0.895572,1.82025 -1.372946,1.18175 -0.39169,-0.52389 -0.900608,-2.34839 -0.913339,-3.27437 -0.01783,-1.29667 -0.369936,-1.00751 -1.032307,0.84777 -0.925647,2.59271 -1.282787,3.42846 -1.465095,3.42846 -0.08572,0 -0.222079,-0.38703 -0.30302,-0.86007 -0.30531,-1.78428 -1.501963,-3.06984 -3.023936,-3.24861 -1.285653,-0.15101 -2.180823,0.39603 -3.001277,1.83409 -0.580512,1.0175 -0.622501,1.22803 -0.616998,3.09344 0.0049,1.66758 0.08741,2.18103 0.494281,3.07649 0.521597,1.14797 1.785276,2.41156 2.931023,2.9308 0.655386,0.29702 0.685837,0.29355 1.173027,-0.13341 0.275098,-0.24109 0.756624,-1.0472 1.070057,-1.79136 0.725139,-1.72163 1.083959,-1.76813 1.440911,-0.18674 0.491299,2.17658 2.840873,5.34539 5.169847,6.97246 2.17932,1.52251 5.815719,3.29421 8.746412,4.26135 1.21308,0.40033 4.09941,1.02853 5.54581,1.20704 1.44963,0.1789 5.55735,0.10535 7.57867,-0.1357 z m -6.96863,-1.89389 c -1.73806,-0.39536 -4.57747,-2.2601 -5.25957,-3.45414 -0.56305,-0.98562 -0.69417,-1.56201 -0.83171,-3.65615 l -0.1249,-1.9016 -1.28857,-0.65217 c -0.708705,-0.35869 -1.50893,-0.8336 -1.778275,-1.05536 -0.716725,-0.59009 -0.982041,-0.50839 -0.982041,0.3024 0,0.87979 -0.521748,1.36642 -0.934559,0.87166 -0.200461,-0.24026 -0.213122,-0.4727 -0.05096,-0.93574 0.146717,-0.41895 0.149093,-0.91152 0.0074,-1.53944 -0.345916,-1.53322 0.42717,-1.99404 1.072938,-0.63955 0.430229,0.90239 3.217747,2.44524 6.188257,3.42512 2.74408,0.90519 4.21034,1.07496 8.42405,0.97539 4.34926,-0.10278 5.47373,-0.30678 8.55182,-1.55141 2.30568,-0.93231 6.15604,-3.19461 6.34057,-3.72543 0.22803,-0.65596 0.73697,-1.04357 1.37024,-1.04357 0.66757,0 0.78585,0.35953 0.24711,0.75108 -0.83899,0.60978 -1.09094,1.90063 -0.65182,3.33951 0.28598,0.93707 0.073,1.30092 -0.64474,1.10129 -0.39161,-0.10892 -0.43618,-0.25953 -0.43618,-1.47381 0,-0.74387 -0.085,-1.3525 -0.18881,-1.3525 -0.10385,0 -0.87469,0.50149 -1.71299,1.11441 -1.55249,1.1351 -2.68287,2.30683 -3.65613,3.78986 -2.50143,3.81161 -4.92836,5.95508 -7.83451,6.91946 -1.3421,0.44536 -4.62006,0.66516 -5.82665,0.39069 z m 5.5106,-1.37123 c 1.75093,-0.53857 3.11911,-1.25936 3.11911,-1.64322 0,-0.3124 -0.93396,-0.98159 -1.56312,-1.11997 -0.25161,-0.0554 -0.83028,-0.0127 -1.28595,0.0949 -0.99921,0.2358 -2.8232,1.41036 -2.6255,1.6907 0.0794,0.11259 0.0451,0.14732 -0.0791,0.0801 -0.12063,-0.0653 -0.54664,0.16809 -0.94672,0.51871 -0.46878,0.41082 -0.84518,0.59789 -1.05859,0.52612 -0.54801,-0.1843 -0.37672,-0.67572 0.44745,-1.28376 0.83784,-0.61811 0.80907,-0.85493 -0.10088,-0.83032 -0.68355,0.0185 -2.81151,0.84491 -3.18145,1.23557 -0.35447,0.37432 -0.0764,0.5881 1.29158,0.99289 1.57182,0.46511 3.95988,0.36067 5.98316,-0.26166 z m -4.07021,-4.16228 c 0.475,-0.30438 0.71658,-1.7284 0.3123,-1.84076 -0.15751,-0.0438 -0.87035,-0.11938 -1.58411,-0.16802 l -1.2977,-0.0884 v 0.78838 c 0,0.63498 0.10646,0.86178 0.54708,1.16554 0.62051,0.42775 1.48317,0.48887 2.02243,0.14329 z m 3.85314,-0.21472 c 0.57199,-0.25922 0.98202,-1.02896 0.73485,-1.37947 -0.0673,-0.0955 -0.8748,-0.1736 -1.79436,-0.1736 h -1.67193 l 0.14551,0.68238 c 0.08,0.3753 0.242,0.78473 0.35997,0.90983 0.29093,0.30854 1.50593,0.28718 2.22596,-0.0391 z m -1.86727,-4.52159 c -1.42267,-0.35024 -2.32301,-0.88362 -2.83886,-1.68179 -0.78515,-1.2148 -0.52457,-2.27894 0.79663,-3.25322 0.83771,-0.61775 1.91471,-0.59989 2.01735,0.0334 0.0566,0.34941 -0.0285,0.40942 -0.58045,0.40942 -0.80836,0 -1.66607,0.7077 -1.66607,1.37468 0,1.20875 2.79323,2.50151 4.52297,2.09332 2.01249,-0.47492 2.19985,-2.1436 0.3273,-2.915 -0.91213,-0.37574 -1.05943,-0.60345 -0.70662,-1.0923 0.59523,-0.82476 2.70829,1.1925 2.70829,2.58552 0,0.82521 -0.57618,1.76914 -1.3517,2.21448 -0.71229,0.40902 -2.10268,0.50868 -3.22884,0.23144 z m -5.7205,-0.56703 c -0.13194,-0.30133 0.23881,-0.83166 0.58143,-0.83166 0.2881,0 0.10955,0.95981 -0.19484,1.04741 -0.14269,0.0411 -0.31665,-0.056 -0.38659,-0.21575 z m -3.06245,-0.59399 c -0.24815,-0.21748 -0.13406,-0.60161 0.17868,-0.60161 0.17129,0 0.31146,0.118 0.31146,0.26221 0,0.30401 -0.29636,0.50922 -0.49014,0.3394 z m 16.05355,-1.06624 c -0.18751,-0.19801 -0.19956,-0.33504 -0.0416,-0.47345 0.26611,-0.23322 0.67372,-0.051 0.67372,0.3012 0,0.38886 -0.33939,0.48135 -0.6321,0.17225 z m -34.363818,-0.34595 c -0.67319,-0.58997 -0.661834,-1.36857 0.03047,-2.08962 0.624102,-0.65001 0.532855,-1.10308 -0.222157,-1.10308 -0.710647,0 -1.356143,0.60629 -1.356143,1.27377 0,0.66166 -0.35691,0.72206 -0.537642,0.091 -0.19913,-0.69532 0.07636,-1.36083 0.840568,-2.03056 1.172086,-1.0272 2.54906,-0.71532 3.478999,0.78797 0.872453,1.41036 1.030099,3.15324 0.285215,3.15324 -0.34486,0 -0.537347,-0.39413 -0.537347,-1.10028 0,-0.90206 -1.183117,-1.13813 -1.674152,-0.33405 -0.295415,0.48375 0.116542,1.1239 0.631151,0.98076 0.48828,-0.13582 0.74227,0.20435 0.412549,0.55253 -0.362067,0.38233 -0.770628,0.32741 -1.351518,-0.18167 z m 52.562258,0.15648 c -0.12866,-0.29385 0.45451,-1.56846 0.95294,-2.08281 0.63709,-0.65743 1.79824,-1.26637 2.41475,-1.26637 0.99499,0 1.4224,0.67963 1.12506,1.78897 -0.12523,0.46725 -0.28289,1.07474 -0.35034,1.34997 -0.0674,0.27522 -0.20877,0.50041 -0.31405,0.50041 -0.40261,0 -0.46852,-0.44201 -0.2079,-1.39412 0.23992,-0.87645 0.23178,-1.02124 -0.0724,-1.28783 -0.31854,-0.27915 -0.39429,-0.2788 -1.07352,0.005 -0.84018,0.35113 -0.93485,0.69246 -0.26364,0.95054 0.60655,0.23321 0.69276,0.82638 0.1979,1.36195 -0.26922,0.29138 -0.50979,0.38573 -0.76482,0.29996 -0.35512,-0.11943 -0.35544,-0.1412 -0.007,-0.47848 0.40321,-0.39046 0.29406,-0.91282 -0.19073,-0.91282 -0.36548,0 -0.74054,0.54691 -0.74054,1.07984 0,0.44232 -0.52165,0.5057 -0.70554,0.0857 z m -14.23244,-0.0674 c -0.35106,-0.19015 -0.1338,-0.73423 0.2932,-0.73423 0.17632,0 0.31797,0.15734 0.31797,0.3532 0,0.43336 -0.23921,0.5825 -0.61117,0.38103 z m 0.40353,-0.37029 c 0,-0.10008 -0.0412,-0.18197 -0.0916,-0.18197 -0.0504,0 -0.14931,0.0819 -0.21989,0.18197 -0.0706,0.10008 -0.0294,0.18197 0.0916,0.18197 0.12094,0 0.21989,-0.0819 0.21989,-0.18197 z m -17.60524,-0.11008 c -0.2199,-0.20851 -0.21281,-0.25386 0.0397,-0.25386 0.35269,0 0.6246,0.29723 0.38719,0.42325 -0.0875,0.0464 -0.2796,-0.0298 -0.42685,-0.16939 z m -6.272773,-0.98172 c -0.15068,-0.24675 -0.153032,-0.36394 -0.0073,-0.36394 0.118218,0 0.214939,0.0867 0.214939,0.19271 0,0.10599 0.09343,0.1421 0.207638,0.0802 0.114196,-0.0618 0.207634,0.0152 0.207634,0.17123 0,0.39909 -0.358386,0.35292 -0.622906,-0.0802 z m 4.064073,0.06 c -0.0732,-0.16715 -0.0239,-0.363 0.10943,-0.43524 0.16638,-0.0901 0.0234,-0.37034 -0.45566,-0.89271 -0.60307,-0.65767 -0.69877,-0.89961 -0.70265,-1.77642 -0.003,-0.65213 0.0883,-1.04299 0.25506,-1.09316 0.16998,-0.0511 0.25955,0.11142 0.25955,0.47113 0,0.76521 0.32553,1.43612 1.04553,2.15479 0.75016,0.74876 0.76496,0.92489 0.0965,1.14763 -0.2855,0.0951 -0.51909,0.22469 -0.51909,0.28792 0,0.0632 0.1354,0.0694 0.30088,0.0138 0.2011,-0.0676 0.26259,-0.0137 0.18542,0.1625 -0.15401,0.35172 -0.4112,0.33373 -0.57493,-0.0402 z m 14.8307,-0.50489 c 0,-0.0445 0.46718,-0.48392 1.03818,-0.9765 0.5838,-0.50363 1.03817,-1.06082 1.03817,-1.27311 0,-0.44541 0.36691,-0.69612 0.65249,-0.44584 0.5666,0.49656 -1.26242,2.77636 -2.2274,2.77636 -0.27579,0 -0.50144,-0.0364 -0.50144,-0.0809 z m 2.35907,-0.19204 c -0.16417,-0.37493 0.0639,-0.83239 0.38632,-0.77505 0.37602,0.0669 0.56372,0.55111 0.31805,0.82054 -0.27819,0.3051 -0.55879,0.28698 -0.70437,-0.0455 z m -19.38513,-0.74121 c 0,-0.33931 0.0953,-0.45206 0.34616,-0.40943 0.19038,0.0324 0.38938,0.17259 0.44221,0.31163 0.0583,0.15342 0.004,0.20284 -0.13853,0.12573 -0.13602,-0.0737 -0.23457,-0.008 -0.23457,0.15664 0,0.15603 -0.0934,0.28369 -0.20763,0.28369 -0.1142,0 -0.20764,-0.21072 -0.20764,-0.46826 z m 14.61512,-0.0526 c -1.50559,-0.82264 -2.05985,-2.29832 -1.71808,-4.57425 0.2298,-1.53029 1.01893,-3.15034 1.73478,-3.56139 1.48406,-0.85219 3.09704,-0.66251 4.03707,0.47474 0.73898,0.89403 0.92962,1.94578 0.64571,3.56233 -0.53374,3.03903 -2.88523,5.08985 -4.69948,4.09857 z m 3.45961,-2.36173 c 0.55188,-1.28737 0.75558,-3.37361 0.41713,-4.27234 -0.32631,-0.86651 -1.11307,-1.39756 -2.0705,-1.39756 -1.43276,0 -2.33536,0.9925 -2.84299,3.12611 -0.31457,1.32225 -0.24144,2.62265 0.13602,2.41821 0.10843,-0.0587 0.19715,-0.40374 0.19715,-0.76669 0,-1.39511 1.71558,-2.01689 2.84175,-1.02994 0.51662,0.45276 0.5336,0.53251 0.41068,1.92941 -0.11044,1.25514 -0.0868,1.42701 0.17055,1.23983 0.16432,-0.11951 0.49741,-0.68068 0.74021,-1.24703 z m -2.43002,-1.63589 c 0.18924,-0.18327 0.28488,-0.3851 0.21251,-0.44852 -0.20567,-0.18025 -0.90751,0.21817 -0.90751,0.51518 0,0.362 0.28008,0.33514 0.695,-0.0667 z m -11.69785,3.4974 c -1.90553,-1.50871 -1.94685,-5.05104 -0.0812,-6.96118 1.80694,-1.85004 4.51084,-1.70972 5.51836,0.28639 0.35318,0.69972 0.40469,1.06176 0.29636,2.0832 -0.2305,2.17356 -1.4683,4.35935 -2.81402,4.96923 -1.06347,0.48195 -1.98426,0.36285 -2.91951,-0.37764 z m 0.37274,-3.66043 c 0.32857,-0.51632 0.88769,-0.77753 1.66429,-0.77753 0.88856,0 1.39479,0.73117 1.35987,1.96411 -0.0182,0.64393 0.0506,0.94106 0.20763,0.89622 0.4215,-0.12037 1.00543,-2.00662 1.03583,-3.34605 0.0337,-1.48213 -0.36427,-2.1769 -1.42418,-2.48652 -1.20081,-0.35079 -2.93237,0.89568 -3.5979,2.58996 -0.31384,0.79895 -0.3117,2.39969 0.004,3.05445 0.2398,0.4972 0.25066,0.48284 0.36977,-0.48857 0.0675,-0.55045 0.23877,-1.18318 0.38061,-1.40607 z m 1.5684,0.0955 c 0.12239,-0.17035 0.15129,-0.37216 0.0642,-0.44849 -0.22153,-0.19413 -0.85071,0.18689 -0.93592,0.56677 -0.0911,0.4061 0.55823,0.31799 0.8717,-0.11828 z m 17.93811,3.91953 c 0.14274,-0.0505 0.25954,-0.17561 0.25954,-0.27806 0,-0.10245 -0.14796,-0.13651 -0.3288,-0.0757 -0.20874,0.0702 -0.29719,0.0275 -0.24224,-0.11701 0.14535,-0.38217 0.67069,-0.25329 0.74121,0.18184 0.0486,0.29963 -0.035,0.40558 -0.31146,0.39506 -0.21805,-0.008 -0.26806,-0.0532 -0.11825,-0.10614 z m 2.64734,-0.97129 c 0.0706,-0.10009 0.0294,-0.18197 -0.0916,-0.18197 -0.29534,0 -0.28088,-0.49139 0.0192,-0.65395 0.23853,-0.12919 0.79904,0.37833 0.79904,0.72351 0,0.10008 -0.13551,0.023 -0.30113,-0.17126 -0.29083,-0.34114 -0.2971,-0.33922 -0.18342,0.0562 0.0721,0.25091 0.0232,0.40942 -0.1264,0.40942 -0.13425,0 -0.18635,-0.0819 -0.11577,-0.18196 z m -5.95002,-0.49131 c -0.12708,-0.7838 0.0231,-1.1464 0.47486,-1.1464 0.35617,0 0.40333,0.10457 0.34814,0.77179 -0.0773,0.93403 -0.68728,1.2117 -0.823,0.37461 z m 1.81954,-0.16046 c -0.17127,-0.39114 -0.16084,-0.44004 0.0939,-0.44004 0.12094,0 0.16215,0.0819 0.0916,0.18197 -0.0706,0.10008 0.0228,0.18197 0.20763,0.18197 0.18478,0 0.27822,0.0819 0.20764,0.18196 -0.18942,0.2686 -0.45741,0.22137 -0.60069,-0.10586 z m -23.092043,-0.1078 c -0.249274,-0.35348 -0.169717,-1.74848 0.116993,-2.05123 0.42522,-0.44903 0.91879,-0.36371 0.73341,0.12678 -0.0851,0.22518 -0.19847,0.79838 -0.2519,1.27377 -0.0955,0.84949 -0.30085,1.07276 -0.598503,0.65068 z m -2.01939,-0.45355 c -0.279307,-0.24478 -0.127431,-0.60656 0.25463,-0.60656 0.394401,0 0.7248,0.41542 0.49239,0.6191 -0.165553,0.14509 -0.575001,0.13822 -0.74702,-0.0125 z m 80.904753,14.10306 c 0.96202,-0.44903 1.80317,-1.83506 1.80317,-2.97123 0,-1.58975 -1.47842,-4.6272 -2.91869,-5.99655 -0.94024,-0.89394 -0.97132,-1.02654 -0.3996,-1.70424 0.65078,-0.7714 0.89097,-2.54884 0.62949,-4.65806 -0.1897,-1.53026 -0.35116,-2.02274 -1.06646,-3.25307 -0.83184,-1.43074 -0.86564,-1.96384 -0.1084,-1.70918 0.41115,0.13827 1.23967,1.57933 1.69196,2.9428 0.43796,1.32028 0.45212,3.87455 0.0311,5.59688 -0.16517,0.67555 -0.24163,1.23696 -0.16992,1.24756 0.0717,0.0106 0.38145,0.005 0.68833,-0.0125 0.7356,-0.0419 1.19825,0.19037 3.17948,1.59638 2.73283,1.93941 4.01869,2.27261 5.10303,1.32233 0.49895,-0.43729 0.60693,-0.68433 0.60693,-1.38877 0,-1.07714 -0.53362,-1.86207 -1.8278,-2.68864 -1.30375,-0.83269 -2.69916,-1.42498 -4.76245,-2.02145 -3.14402,-0.9089 -2.63308,-1.22061 2.27747,-1.3894 2.08653,-0.0717 4.30598,-0.2317 4.9321,-0.35551 1.95436,-0.38646 3.00739,-1.72756 2.28512,-2.91029 -0.34756,-0.56916 -1.56512,-0.72179 -5.7661,-0.72286 -4.27532,-0.001 -5.18405,-0.14557 -5.6431,-0.89728 -0.34015,-0.55702 0.51343,-1.17366 2.16798,-1.56616 1.22427,-0.29043 1.71798,-0.62538 1.46031,-0.99075 -0.0562,-0.0797 0.0189,-0.23297 0.16681,-0.34058 0.19814,-0.14413 0.53934,-0.0737 1.29542,0.26743 0.87556,0.39502 1.22086,0.45032 2.34912,0.37621 1.95434,-0.12839 2.9955,-0.97981 2.65445,-2.17069 -0.24284,-0.84793 -1.3468,-1.13974 -4.28858,-1.13364 -2.64091,0.005 -4.91897,0.33353 -8.40922,1.21095 -2.52929,0.63584 -5.83031,2.0641 -6.36128,2.75235 -0.0727,0.0943 0.0973,0.55905 0.37777,1.03285 0.47924,0.80952 0.49564,0.93078 0.2722,2.01069 -0.27311,1.31998 -1.52195,3.63286 -1.96155,3.63286 -0.56932,0 -0.5224,-0.33782 0.24302,-1.75037 0.95983,-1.77125 1.00709,-2.8151 0.19185,-4.23754 -0.30158,-0.52621 -0.54833,-1.12284 -0.54833,-1.32584 0,-0.20301 0.32895,-0.95372 0.73102,-1.66825 1.41787,-2.51983 1.17984,-4.82406 -0.65113,-6.30315 -1.14996,-0.92897 -2.12398,-1.30681 -2.98132,-1.15654 -1.40004,0.24539 -1.60153,1.48618 -0.63246,3.8947 1.16273,2.88984 0.84551,4.10644 -1.62845,6.24537 -1.48339,1.28252 -2.19245,2.36798 -2.6321,4.02937 -0.75532,2.85421 -1.33808,3.18699 -7.77817,4.44153 -2.69949,0.52586 -5.45994,0.93695 -8.30541,1.23684 l -1.34962,0.14224 -0.15916,1.36475 c -0.0875,0.75061 -0.13426,2.06078 -0.10382,2.91147 l 0.0554,1.54673 0.83054,-0.0558 c 0.4568,-0.0307 1.99849,-0.21631 3.42599,-0.41255 3.90074,-0.53624 14.22041,-3.02196 14.63825,-3.52596 0.11421,-0.13774 0.32245,-0.40083 0.46278,-0.58464 0.29501,-0.38645 0.33081,-0.35702 1.5861,1.3035 1.25099,1.65482 3.09979,2.26175 6.91782,2.27098 1.77223,0.004 2.4263,0.19347 3.35386,0.97008 0.96564,0.80851 1.40641,1.66083 1.56195,3.02042 0.14936,1.30567 0.63209,2.17918 1.39002,2.51533 0.62133,0.27558 0.54523,0.27426 1.09237,0.0189 z M 48.416054,191.19654 c 0.717548,-0.49466 1.707947,-2.04703 2.332235,-3.65561 0.952973,-2.4555 1.260367,-2.63244 4.767384,-2.74427 2.906343,-0.0927 3.76609,-0.35883 5.398509,-1.67124 0.570996,-0.45906 1.107434,-0.83594 1.192084,-0.83751 0.08465,-0.002 1.439466,0.59786 3.010708,1.33206 4.549954,2.12609 8.780912,3.75348 12.51182,4.81253 2.593306,0.73613 5.116436,1.25713 5.301726,1.09475 0.05399,-0.0473 -0.449863,-0.57024 -1.119677,-1.16206 -1.391187,-1.22919 -2.01667,-2.4475 -2.263963,-4.40971 l -0.153188,-1.2155 -0.934358,-0.40904 c -0.987033,-0.43209 -3.833976,-1.38805 -8.04196,-2.70036 -3.005153,-0.9372 -3.871523,-1.31394 -4.787744,-2.08196 -0.662051,-0.55495 -0.678852,-0.60519 -0.546137,-1.63322 0.150487,-1.16568 -0.146312,-2.58623 -0.766334,-3.66786 -0.210037,-0.36642 -0.466066,-0.99454 -0.568946,-1.39583 -0.159036,-0.62032 -0.114007,-0.83696 0.300609,-1.4463 0.268216,-0.39417 1.027464,-1.07383 1.687221,-1.51034 2.746465,-1.81714 3.466952,-3.32436 2.126948,-4.44946 -0.543327,-0.45619 -0.823613,-0.53844 -2.040064,-0.59868 -2.437225,-0.12069 -4.276136,0.87537 -5.277033,2.85835 -0.353638,0.70063 -0.392493,1.04495 -0.273631,2.42483 l 0.13853,1.60824 -0.677155,0.31393 c -1.807936,0.83815 -2.700469,2.36415 -2.688286,4.59625 0.0067,1.22571 -0.362281,1.47218 -0.804193,0.53719 -0.350979,-0.74259 0.03705,-2.48224 0.848811,-3.80551 0.33323,-0.54321 0.605871,-1.05408 0.605871,-1.13527 0,-0.22788 -3.015874,-1.5032 -4.983239,-2.10725 -3.030195,-0.9304 -5.136459,-1.22698 -8.720668,-1.22797 -2.871577,-7.4e-4 -3.296414,0.0393 -3.942936,0.37216 -0.398528,0.20517 -0.865707,0.59413 -1.038175,0.86434 -0.279456,0.43784 -0.279527,0.54465 -6.61e-4,0.98157 0.535813,0.83949 1.985144,1.33115 5.337209,1.81057 4.130272,0.59071 4.786525,0.85825 4.495723,1.8328 -0.179719,0.6023 -0.984926,0.77925 -3.563214,0.78308 -3.396864,0.005 -5.080557,0.24514 -6.669273,0.95106 -1.611603,0.7161 -2.239835,1.5347 -1.877282,2.44615 0.283834,0.71356 0.950878,0.96663 2.544682,0.96543 1.791717,-0.001 6.097754,-0.6649 7.114784,-1.09638 0.969207,-0.41118 1.537753,-0.45894 1.558798,-0.13093 0.02496,0.38903 0.370668,-0.47431 0.386083,-0.96418 0.01927,-0.61246 1.579951,-4.84011 1.988502,-5.38656 0.212604,-0.28435 0.519227,-0.42754 0.915559,-0.42754 0.8196,0 0.935257,0.42707 0.295975,1.09289 -1.038149,1.08125 -1.935215,4.33906 -1.938058,7.03829 -0.0017,1.62783 -0.236621,2.42292 -0.715846,2.42292 -0.509036,0 -0.739167,-0.62825 -0.739167,-2.01788 0,-1.28814 -0.0079,-1.30768 -0.402168,-0.99497 -0.221193,0.17543 -1.859617,0.7538 -3.640942,1.28527 -1.781326,0.53147 -3.552935,1.17631 -3.93691,1.43298 -0.966157,0.64583 -1.649127,1.91092 -1.373997,2.54511 0.24564,0.56621 1.352713,1.20522 2.089695,1.20618 0.287093,2.6e-4 1.780785,-0.6257 3.319317,-1.39127 3.3098,-1.64696 4.131974,-1.8175 5.148465,-1.06791 1.018485,0.75106 0.897519,1.1746 -0.929121,3.2532 -1.843076,2.0973 -2.546315,3.42373 -2.553395,4.81615 -0.0042,0.83177 0.0812,1.0448 0.602005,1.50123 0.714541,0.62621 1.215766,0.66815 1.948472,0.16306 z M 135.39096,177.679 c 0.34963,-1.01958 0.75935,-1.96957 0.91051,-2.1111 0.51324,-0.48058 0.85201,0.0829 1.11009,1.84654 0.13477,0.921 0.29535,1.71811 0.35681,1.77135 0.22746,0.19701 1.12388,-1.02897 1.52774,-2.08939 1.02863,-2.70084 1.32951,-6.06317 0.70923,-7.92544 -0.70557,-2.11835 -1.85182,-3.2955 -4.13495,-4.24639 -2.03658,-0.84821 -3.37803,-1.08941 -5.32644,-0.95773 -1.50527,0.10173 -1.62933,0.0838 -1.62933,-0.23488 0,-1.02062 4.01021,-2.60968 6.59241,-2.61227 1.74021,-0.002 1.88892,-0.18515 0.79241,-0.97725 -1.11793,-0.80758 -2.84311,-1.4962 -4.5722,-1.82504 -1.37237,-0.261 -1.79884,-0.27077 -3.14779,-0.0721 -2.8381,0.41793 -5.41643,1.3864 -7.15658,2.68814 -1.20418,0.90081 -1.85182,1.02425 -1.85182,0.35294 0,-0.61139 1.69258,-3.50541 2.58191,-4.41464 0.40714,-0.41623 0.74025,-0.81566 0.74025,-0.8876 0,-0.22558 -1.50667,0.0682 -2.90973,0.56737 -1.64869,0.58656 -2.9197,1.21814 -4.14986,2.0621 -1.74319,1.19594 -2.87672,2.44292 -1.92062,2.11285 0.73529,-0.25384 2.47944,-0.32029 2.92473,-0.11144 0.48726,0.22854 0.60949,0.88581 0.18979,1.02056 -0.14275,0.0458 -0.6261,-0.0289 -1.07411,-0.16595 -0.88762,-0.27163 -1.78771,-0.14446 -2.39682,0.33864 -0.1931,0.15315 -0.55599,0.27846 -0.80638,0.27846 -1.77578,0 -0.14011,-3.7502 2.62887,-6.02737 2.00081,-1.64544 7.55978,-3.90682 10.48944,-4.2671 0.55153,-0.0678 1.0473,-0.22501 1.10172,-0.3493 0.15145,-0.34586 -0.76153,-2.65349 -1.09405,-2.76532 -0.4433,-0.14907 -2.92679,0.44782 -4.33261,1.04133 -1.68465,0.71121 -4.67679,2.69907 -6.38584,4.24247 -1.6373,1.47862 -2.53124,2.61286 -3.95315,5.01583 -1.50468,2.54282 -1.5733,2.62756 -1.922,2.37394 -0.22739,-0.1654 -0.28317,-0.67427 -0.24565,-2.24128 0.0575,-2.40047 -0.24752,-3.17355 -1.84117,-4.66668 -1.58835,-1.48816 -5.3628,-3.45651 -6.62808,-3.45651 -0.41153,0 -2.159712,1.42819 -2.654647,2.16874 -0.375091,0.56123 -0.374964,0.56188 0.143156,0.73452 0.285218,0.095 1.52867,0.34146 2.763231,0.54761 1.23455,0.20615 2.52495,0.46773 2.86754,0.58127 0.95876,0.31777 2.86506,1.41993 3.26918,1.89014 0.55463,0.64533 0.98735,2.37025 0.98735,3.93577 0,1.20888 -0.0575,1.4381 -0.40163,1.59948 -0.22089,0.1036 -0.55714,0.18836 -0.74725,0.18836 -0.7313,0 -1.78731,0.62311 -2.50193,1.47627 -0.80875,0.96554 -1.33244,1.14634 -1.33244,0.46001 0,-0.55309 1.43166,-1.98136 2.38234,-2.37673 0.40271,-0.16747 0.7322,-0.35305 0.7322,-0.41239 0,-0.26571 -2.44208,0.15005 -3.46986,0.59074 -0.99075,0.4248 -1.17596,0.45383 -1.43682,0.22522 -0.3975,-0.34835 -0.16646,-0.82287 0.5612,-1.15264 0.78232,-0.35454 3.06317,-0.81296 3.4304,-0.68947 0.16069,0.054 0.29217,0.0183 0.29217,-0.0794 0,-0.29512 -2.37848,-1.10389 -4.19509,-1.42648 -1.650498,-0.29309 -4.996831,-0.27354 -5.330572,0.0311 -0.07115,0.065 0.104222,0.25163 0.389721,0.41481 1.024824,0.58578 1.692042,1.2882 1.62379,1.70946 -0.05647,0.34852 -0.20783,0.41739 -1.000887,0.45543 -3.567006,0.17111 -6.094079,0.86144 -8.342825,2.27906 -1.415254,0.89218 -3.224332,2.42987 -3.044325,2.58763 0.06088,0.0533 0.540755,-0.0697 1.06639,-0.27349 0.525637,-0.20377 1.307319,-0.389 1.737068,-0.41163 1.209972,-0.0637 1.153724,0.4218 -0.192119,1.65836 -1.645782,1.51213 -3.362568,4.97146 -4.099536,8.26058 -0.27142,1.21136 -0.184994,1.41286 0.605988,1.41286 0.76939,0 2.262926,0.96788 2.614015,1.69399 0.311079,0.64336 0.405987,0.52692 0.610182,-0.7486 0.24597,-1.53648 1.82971,-3.85686 2.632443,-3.85686 0.579149,0 0.669851,0.38388 0.328893,1.392 -0.376007,1.11175 -0.05983,3.52111 0.462068,3.52111 0.08118,0 0.46037,-0.66392 0.842656,-1.47538 1.509329,-3.20378 5.216919,-7.22801 8.24833,-8.95276 1.90016,-1.08111 4.39112,-1.95575 5.92626,-2.08085 1.11502,-0.0909 1.19389,-0.0717 1.19389,0.2909 0,0.2135 -0.56061,1.05082 -1.2458,1.8607 -0.68519,0.80989 -1.24581,1.54731 -1.24581,1.63873 0,0.0914 0.74273,0.16621 1.6505,0.16621 h 1.65053 l 0.58155,-0.68222 c 0.31986,-0.37521 0.6509,-0.76417 0.73564,-0.86434 0.98308,-1.16212 2.12558,-2.30861 2.45412,-2.4627 0.60799,-0.28517 0.68961,0.0985 0.52723,2.47885 l -0.14165,2.07631 h 0.82417 c 1.20582,0 1.4005,-0.27624 1.56289,-2.21774 0.21666,-2.59021 0.29955,-2.87734 0.83067,-2.87734 1.33451,0 3.53205,1.96941 4.96398,4.44866 0.43655,0.75586 0.87598,1.37429 0.9765,1.37429 0.27123,0 0.60498,-1.1893 0.7549,-2.6901 0.0728,-0.72894 0.2125,-1.36873 0.3104,-1.42175 0.30388,-0.16459 1.34426,0.60936 2.43717,1.81305 1.23116,1.35595 2.40178,3.40678 2.7261,4.77589 0.12689,0.53566 0.31459,1.01937 0.41711,1.0749 0.10252,0.0555 0.61279,-0.70048 1.13393,-1.68002 1.38596,-2.60509 1.44249,-2.69083 1.77421,-2.69083 0.37088,0 1.55185,2.09805 1.96673,3.494 0.26673,0.89744 0.42861,1.83204 0.86004,4.9654 l 0.11246,0.81677 0.30474,-0.50972 c 0.16761,-0.28034 0.5908,-1.34391 0.94043,-2.36349 z"
         style="fill:none;fill-opacity:1;stroke-width:0.19437782" />
    </g>
  </g>
</svg>
